<?xml version="1.0"?>
<svg xmlns="http://www.w3.org/2000/svg" xmlns:xlink="http://www.w3.org/1999/xlink" width="194" height="200" viewBox="0 0 194 200">
<style type="text/css">
	.st0{fill:#002B54;}
	.st1{fill:#FFC222;}
	.st2{fill:#A7A9AC;}
</style>
<path class="st0" d="M113.8,194.1v-0.5c0,0,1.1-0.3,1.1-1.7c0-1.4,0-3-1.1-3h-6.6v1.8h0.7v6.3h-0.7v2h6.1c1.6,0,1.6-1.4,1.6-2.6
			C114.9,193.9,113.8,194.1,113.8,194.1 M112.3,196.9h-1.6v-2.2h1.6V196.9z M112.3,192.9h-1.6v-2.2h1.6V192.9z"/>
		<path class="st0" d="M72.8,196.9v-0.5c0-2.5-1.1-2.4-1.1-2.4v-0.5c0,0,1.1-0.3,1.1-1.7c0-1.4,0-3-1.1-3h-6.6v1.8h0.7v6.3h-0.7v2
			h3.5v-2.1v-0.2v-2h1.6v1.6v0.6v2.1h1h2.2v-2.1H72.8z M70.2,192.9h-1.6v-2.2h1.6V192.9z"/>
		<path class="st0" d="M84.2,188.9v8.1h0h-1.7h0v-8.1h-3.3v1.8h0.7v6.3c0,0.9,0.4,1.4,1,1.7c0,0,0.1,0,0.1,0c0.1,0,0.2,0.1,0.3,0.1
			c0.1,0,0.1,0,0.2,0c0.1,0,0.1,0,0.2,0c0.1,0,0.2,0,0.3,0l0.4,0H84l0.6,0c0.1,0,0.2,0,0.3,0c0.1,0,0.1,0,0.2,0c0.1,0,0.1,0,0.2,0
			c0.1,0,0.2-0.1,0.3-0.1c0,0,0.1,0,0.1,0c0.6-0.3,1-0.8,1-1.7v-6.3h0.7v-1.8H84.2z"/>
		<path class="st0" d="M100.3,191.7v-2.8h-2.5h-1.6l-0.2,0l-0.4,0c-0.1,0-0.2,0-0.4,0c-0.1,0-0.1,0-0.2,0c-0.1,0-0.1,0-0.2,0
			c-0.1,0-0.2,0.1-0.3,0.1c0,0-0.1,0-0.1,0c-0.2,0.1-0.3,0.2-0.5,0.3c-0.3,0.3-0.5,0.8-0.5,1.4v6.1c0,0.9,0.4,1.4,1,1.7
			c0,0,0.1,0,0.1,0c0.1,0,0.2,0.1,0.3,0.1c0.1,0,0.1,0,0.2,0c0.1,0,0.1,0,0.2,0c0.1,0,0.2,0,0.4,0l0.4,0H96h1.2v0h1.4H99h1.3v-2.9
			V195v-2.3h-0.2h-1.7h0h-0.6h-0.4h-0.8v1.9h0.8h0.4h0.3v2v0.3v0.1h-0.3h0h-0.4h-1.3h0v-2.4v-1.9v-1.8v-0.2h1.8h0.3v1H100.3z"/>
		<path class="st0" d="M126.2,188.9c-0.3,0-1,2.1-1.4,3.1c-0.4-1-1.1-3.1-1.4-3.1h-2.7v1.8h0.7l0,0.2l2.1,3.3v2.7h-0.8v2.3h4.2v-2.3
			H126v-2.5l2.1-3.5l0-0.2h0.7v-1.8H126.2z"/>
		<path class="st1" d="M191.8,200h1.5h0.7v-0.7v-1.5V190v-1.5v-0.7h-0.7h-1.5h-55.5v12.1L191.8,200z M57.7,199.9v-12.1H2.2H0.7H0
			v0.7v1.5v7.8v1.5v0.7h0.7h1.5L57.7,199.9z M193.3,139.7h-1.5H2.2H0.7H0v0.7v1.5v7.8v1.5v0.7h0.7h1.5h189.6h1.5h0.7v-0.7v-1.5v-7.8
			v-1.5v-0.7H193.3z"/>
		<path class="st2" d="M174.9,125.4c-7.5-7.5-17.6-18.9-17.6-18.9l-15.5-10.5l-25.6-5.6l-5.9,6.1l-23.7,17.1c0,0-8-1.9-22.6-16.4
			l-13.6,12.4l-12.9-9.9L3.4,136.2h186.5C192.3,136.2,182.4,132.9,174.9,125.4 M27.2,116.6l-4.6,4.6v-1.6l13.2-13.9
			C34.2,112.7,27.2,116.6,27.2,116.6 M53.2,119.1h-4l-4,1.9l-0.9-0.9l15.3-15.3C61.4,109.2,53.2,119.1,53.2,119.1 M93.6,119.8h-2.1
			l-1.9-1.9H88v-1.2l11.7-7.5L93.6,119.8z"/>
		<path class="st1" d="M152.1,128.4c1.8,2.6,4.2,2.7,4.3,2.7l6.5,0.2l-5.5-3.6c-1-0.7-1.7-2.4-1.9-5.1c1.1,0.9,2.1,1.1,2.3,1.1
			l3.7,0.4l-1.9-3.2c-1.4-2.3-1.3-3.1-1-6.3c0.2-1.8,0.4-4.4,0.4-8.1c0-9.8-7.8-14.4-10.5-15.7c-1.8-8.4-7.8-16.7-18.1-25.3
			c-4.7-3.9-7.3-7.9-8.8-11.4c2.8,2,5.3,1.7,5.5,1.7l5.1-0.6l-3.8-2.5c2.8,0.9,4.8,0.4,4.9,0.3l4.1-1.2l-3.7-2.2
			c-1.7-1-3.1-1.9-4.1-2.7c2.3,0.5,3.8-0.3,4-0.3l4.7-2.4l-5.2-1.1c-0.7-0.1-1.5-0.7-2.4-1.5l2.7-2.2c-1.5-2.5-3-4.4-4.4-5.9l2-1.4
			c-1.3-2.4-2.7-4.3-4.1-5.8l2-1.9c-1.4-1.9-2.7-3.4-3.9-4.6l1.6-1.8c-2.9-3.1-5.6-5-8-6.1l0.9-1.8c-1.2-0.8-2.4-1.4-3.6-1.9
			l4.2-0.1l-5.9-3.4c-1.5-0.9-3.4-1.3-5.2-1.5l3.6-3.3l-5.8,0.7c-13.2,1.6-26.2,9.8-30.2,13.8c-1.4,1.4-2.1,2.9-2,4.5
			c0.2,2.6,2.3,4.2,3.6,5.2c0.2,0.1,0.4,0.3,0.5,0.4c2.3,2.3,4.6,0,5.9-1.3c0.4-0.2,1.7,0.1,2.6,0.2c1,0.2,2,0.3,3,0.3
			c1.4,0,3.2-0.5,4.7-1c-0.2,0.4-0.4,0.8-0.7,1.1c-3.4,3.4-6,5.2-8.1,6.6c-1.6,1.1-2.9,2-4.2,3.3c-2.2,2.2-4,5-4.8,6.4
			c-5.6,0.5-7.6-0.3-11.4-1.7c-1.3-0.5-2.7-1.1-4.6-1.7c-7.6-2.5-17.4-4.5-20.8-4.5c-5.2,0-12,1-12.3,1l-3.7,0.6l2.6,2.6
			c5.2,5.2,6.4,5.2,7,5.2c1.5,0,2.9-0.2,4.9-2.1c0.6,0.1,1.8,1.1,2.5,1.5c0.2,0.1,0.4,0.3,0.5,0.4c-3.4,1.5-6.9,4.3-9.6,9.3
			l-1.4,2.5l2.9,0.2c1.8,0.2,8,0.5,10.3-1.2l0.8-0.6l0-1c0-0.9,0.1-2.1,0.3-2.6c0.7-0.8,4.6-3.1,9.4-4.1l2.5-0.5
			c3.2,1.1,6.7,3.1,10.1,6.4c4.4,4.5,9.3,6.4,13.3,7.3l0.4,1.2c4,13,23.6,27.7,25.5,29.2c0.6,0.7,1.8,1.9,3.3,1.8
			c-0.7,2.4-1.3,5.2-1.3,8.1c0,7.7,3.2,13.9,5.3,18c0.6,1.1,1.1,2.1,1.4,2.9c0.9,2.3,0.2,4,0,4.6c-5.5,4.5-17.4,18.5-17.9,19.1
			l-0.2,0.3l-0.1,0.3c-0.3,0.8-0.3,1.9,0.4,2.9c0.8,1.1,2.2,1.7,4.3,1.7h0.7c3.3,0,6.1,0,7.6-1.5c0.6-0.6,1-1.4,1-2.3
			c0,0,0.3-4,0.3-5.5c0.1-0.1,0.5-0.3,0.8-0.3c2,0.2,3.2-1.4,4.2-3.9c1.2-2.5,5.5-5.8,8.1-7.7c2.6-2,3.4-2.6,3.4-3.8
			c0-0.5,0.2-4.6,0.3-7.9c9.8-2.5,15.8-11.2,18.5-16c0.1,1.1,0.2,2.5,0.2,4.5c0,6.2-2.4,9-4.8,11.9c-2.2,2.5-4.4,5.2-4.4,9.8
			c0,12.4,3.3,15.3,4,15.8l4.3,3l-1.4-4.9c2.3,4.4,5.3,6,5.6,6.1l2.2-3c-1.7-1.7-2.6-3.9-3.2-6.1c2.1,3.1,4.7,3.4,4.7,3.4h6.1
			l-5.1-3.4C153.3,134.5,152.4,132.8,152.1,128.4"/>
		<rect x="2.2" y="141.9" class="st0" width="189.6" height="7.8"/>
		<path class="st0" d="M154,114.6c0-1.3,0.6-0.5,0.6-0.5c0,7.5,3.5,7.9,3.5,7.9c-2.6-4.3-0.9-4.9-0.9-15.4
			c0-10.5-10.2-14.3-10.2-14.3c-1.2-6.6-5.3-14.9-17.7-25.1c-12.5-10.2-11.4-22-11.4-22c3,9.7,9,9,9,9c-7.1-4.8-6.3-10-6.3-10
			c6.3,9,12.2,7.3,12.2,7.3c-12.2-7.3-9.2-10.6-9.2-10.6c5.2,6.2,9.1,4.2,9.1,4.2c-3.7-0.8-8.6-8.6-9.8-9.1
			c-1.2-0.5-3.3-1.6-0.7-1.9c2.6-0.3,9.6,6.4,9.6,6.4c-6-9.6-11-10.7-11-10.7s-2.1-0.5-0.5-1.3c4.1-0.9,9.1,4.6,9.1,4.6
			c-4.7-8.8-10.7-9.8-11.7-9.8c-1,0,0-1,0-1c4.8-0.9,9.8,3.4,9.8,3.4c-5.9-8.3-10.5-7.9-11-7.9c-0.6,0-2.4,0-1.4-1
			c2-2,10.3,2.7,10.3,2.7c-6.9-7.6-13.2-7.1-13.2-7.1s-0.4-0.2-0.4-0.5c0-1.9,6.7,0,6.7,0c-5.3-3.6-11-3.1-11-3.1s-0.4-0.4-0.4-1.2
			c0-0.8,6.2-0.9,6.2-0.9c-3.1-1.8-8.9-1.4-8.9-1.4l2.7-2.5C94.4,4.1,81.8,12,78,15.8c-3.8,3.8,1.1,6.4,2.1,7.4c1,1,2,0,3.3-1.3
			c1.3-1.3,4.3,0,6.8,0c2.5,0,6.8-2.2,7.2-1.8c0,0,0,3.1-1.9,5c-6,5.9-9.6,7-12.4,9.9c-2.8,2.8-5,6.9-5,6.9
			c-8.9,0.9-10.2-0.9-17.7-3.4c-7.5-2.5-17.1-4.4-20.2-4.4c-5.2,0-12,1-12,1s4.6,4.6,5.7,4.6c1.1,0,2,0,3.8-1.7
			c1.7-1.7,5.5,2.7,6.6,2.7c0,0,13-3.1,24.1,8c8.9,8.9,19.7,7.2,19.7,7.2c0,2-5.6,2-5.6,2c4,12.9,25,28.3,25,28.3s1.7,2.3,2.6,0.8
			c1.2-4,5.8-6.7,5.8-6.7s-5.8,7.8-5.8,17.2c0,9.5,5.1,16.6,6.5,20.2c1.4,3.6-0.2,6.4-0.2,6.4c-5.2,4.1-18,19.2-18,19.2
			s-0.8,2.1,2.9,2.1c3.7,0,7.4,0.2,7.4-2c0,0,0.4-4.3,0.4-5.6c0-1.4,1.6-2.1,2.6-2.1c0.4,0,1.1,0.4,2.5-2.8
			c2.1-4.5,11.3-9.9,11.3-10.7c0-0.8,0.4-9.3,0.4-9.3c13.7-2.6,20.3-18.6,20.3-18.6l0.5-0.1c0,0,1.6-1.4,1.6,8.7
			c0,12.6-9.3,13-9.3,21.7c0,12,3.2,14.2,3.2,14.2c-1.3-4.5-1-13,0.1-13s1.1,1.1,1.1,1.1c0,12.3,7,15.9,7,15.9
			c-6.1-6.1-4.1-17.7-4.1-18.9c0-1.2,1.4,0,1.4,0c0,12,5.5,13,5.5,13c-4.2-2.8-2.8-14.5-2.8-16.1c0-1.6,1.6-0.7,1.6-0.7
			c0,9.3,4.6,9.4,4.6,9.4C152.3,126.5,154,115.9,154,114.6 M96.1,11.6c-1.9,0.6-3.1-0.8-3.1-0.8c2-2,5.8-1,5.8-1S97.9,11,96.1,11.6
			 M33.9,51.7c0,0,7.1,0.6,9.1-0.8c0,0-0.1-2.4,0.5-3.6c0.6-1.2,5.3-3.9,10.7-5C54.1,42.3,41.1,38.2,33.9,51.7"/>
		<path class="st1" d="M193.1,174.4c0-0.8-0.1-1.5-0.1-2.2c0-2.6-0.9-4.6-2.3-6h1.9v-2.7v-7.7v-2.7h-2.7h-14.3
			c-1.9,0-3.5,0.6-4.6,1.7v-1.7h-2.7h-10.8h-7.2h-1.9h-0.1h-2.6h-0.1h-1.9h-7.2h-2h-2.7v0.7c-0.8-0.4-1.6-0.7-2.6-0.7H111H111h-2.6
			h-0.1h-6.9h-1.7h-0.6h-1.6l-0.7,1.4l-4.1,7.6l-4.1-7.6l-0.7-1.4h-1.6h-0.6h-1.7h-6.7h-0.2h-2.4h-0.2h-9h-2.4h-0.3h-2.4h-9.2h-2.7
			v1.8c-0.1-0.1-0.2-0.2-0.3-0.4c-0.9-0.9-2.1-1.4-3.5-1.4H26.5h-2.6v0.6c-0.7-0.4-1.6-0.6-2.5-0.6H3H0.4v2.7v5.1v2.7h2v12.2h-2v2.7
			v5.6v2.7H3h16.9c1.7,0,3-0.4,3.9-1v1h2.6h9.6h1.9h0.7h1.9h2.7h6.2h2.7V184v-0.6c0.7,0.9,1.6,1.6,2.7,2.1c0.2,0.1,0.3,0.1,0.4,0.2
			c0,0,0,0,0,0c0.3,0.1,0.7,0.3,1.1,0.4c0.2,0.1,0.4,0.1,0.6,0.1c0.1,0,0.1,0,0.1,0c0,0,0.1,0,0.1,0c0.2,0,0.4,0.1,0.6,0.1
			c0.4,0.1,0.8,0.1,1.2,0.1l0,0l0.1,0l1,0l0.1,0h0.1h4.7c0.1,0,1.7,0,1.7,0l0.1,0l0.1,0c0.4,0,0.8-0.1,1.2-0.1
			c0.2,0,0.4-0.1,0.6-0.1c0.1,0,0.1,0,0.1,0c0,0,0.1,0,0.1,0c0.2,0,0.4-0.1,0.7-0.2c0.4-0.1,0.8-0.3,1.1-0.4c0.1,0,0.2-0.1,0.4-0.2
			c1.5-0.7,2.7-1.9,3.4-3.3v1.7v2.7h2.7h8.6h2.7V184v-5.6v-0.2l2,3.7l2.3,4.4l2.3-4.4l2-3.7v0.2v5.6v2.7h2.6h8.5h0.1h2.6h0.1h16.8
			c1.7,0,3-0.4,4-1v1h2.7h2h7.2h1.9h0.1h2.6h0.1h1.9h7.2h10.8h0.6h2.1h0.6h14.7c2.4,0,3.9-1,4.8-1.9
			C193.5,182.2,193.2,177.9,193.1,174.4 M171,172.6c0.1,0.1,0.3,0.3,0.5,0.4H171V172.6z M181.1,175.5h-0.6v-1.1h0.6V175.5z
			 M180.6,163.8v-0.3h0.6v0v0.2H180.6z M75.4,163.6h1.1v12h-1.1V163.6z M133.9,170.7c-0.2-0.4-0.5-0.8-0.8-1.2
			c0.3-0.3,0.5-0.7,0.8-1.1V170.7z M110.3,175.5h-1.3v-12h1.3V175.5z M146.4,163.6h1.3v12h-1.3V163.6z M25.9,170.6
			c-0.2-0.4-0.4-0.8-0.7-1.1c0.3-0.3,0.5-0.6,0.7-1V170.6z M48.6,169.5c1-1.2,1.8-2.9,1.8-5.3v-0.4v-0.2h0.3v12h-0.2
			C50.4,172.8,49.7,170.9,48.6,169.5 M168.3,172h-2.6v-0.2v-4.5h2.6h0.5v0.7c0,1,0.5,2.6,1.6,4H168.3z"/>
		<path class="st0" d="M21.4,170.3V169c0,0,2.9-0.8,2.9-4.8s0.1-8.3-2.9-8.3H3v5h2v17.5H3v5.6h16.9c4.5,0,4.5-4,4.5-7.2
			C24.4,169.8,21.4,170.3,21.4,170.3 M17.2,178.2h-4.6v-6.1h4.6V178.2z M17.2,167h-4.6v-6.1h4.6V167z M129.3,170.3V169
			c0,0,2.9-0.8,2.9-4.8s0.1-8.3-2.9-8.3H111v5h2v17.5h-2v5.6h16.9c4.5,0,4.5-4,4.5-7.2C132.4,169.8,129.3,170.3,129.3,170.3
			 M125.2,178.2h-4.6v-6.1h4.6V178.2z M125.2,167h-4.6v-6.1h4.6V167z M47.9,176.9c0-7-3.1-6.6-3.1-6.6V169c0,0,2.9-0.8,2.9-4.8
			s0.1-8.3-2.9-8.3H26.5v5h2v17.5h-2v5.6h9.6v-5.9v-0.6v-5.5h4.6v4.6v1.5v5.9h2.7h6.2v-5.9h-1.8C47.9,177.7,47.9,177.3,47.9,176.9
			 M40.7,167h-4.6v-6.1h4.6V167z M66.8,184c0.3,0,0.7-0.1,1-0.1c0.2,0,0.4-0.1,0.6-0.1c0.2,0,0.4-0.1,0.6-0.1
			c0.3-0.1,0.6-0.2,0.8-0.3c0.1,0,0.2-0.1,0.2-0.1c1.7-0.8,2.8-2.3,2.8-4.8v-17.5h2v-5h-9.2v22.6h-0.1h-4.9h-0.1v-22.6h-9.2v5h2h0
			v17.5c0,2.5,1.1,4,2.8,4.8c0.1,0,0.2,0.1,0.2,0.1c0.3,0.1,0.5,0.2,0.8,0.3c0.2,0.1,0.4,0.1,0.6,0.1c0.2,0,0.4,0.1,0.6,0.1
			c0.3,0,0.6,0.1,1,0.1l1,0h4.7L66.8,184z M99.8,155.9h-0.6l-6.4,12.1l-6.4-12.1h-0.6h-1.7h-6.9v5H79l0.2,0.5v0.1v16.1v0.1l-0.2,0.5
			h-1.8v5.9h8.6v-5.6v-0.2v-10.5l7,13l7-13v10.5v0.2v5.6h8.6v-5.9h-1.8l-0.2-0.5v-0.1v-16.1v-0.1l0.2-0.5h1.8v-5h-6.9H99.8z
			 M136.5,155.9h-2v5h1.9l0.1,0.6v16.1l-0.1,0.6h-1.9v5.9h2h7.2h2v-5.9h-1.9l-0.1-0.6v-16.1l0.1-0.6h1.9v-5h-2H136.5z M150.3,155.9
			h-2v5h1.9l0.1,0.6v16.1l-0.1,0.6h-1.9v5.9h2h7.2h10.8v-5.2v-0.7v-3.5H162v3.5h-4.4l-0.1-0.6v-5.8h5.6v-5.2h-5.6v-5.1l0.1-0.6h4.4
			v3.8h6.3v-3.8V160v-4.2h-10.8H150.3z M190.3,172.2c0-4.3-3.2-5.8-5.8-5.8h-6.7v-5.6h5.9v2.7h6.1v-7.7h-14.3
			c-3.1,0-4.2,2.4-4.2,4.7v7.5c0,0.5,0.9,3.7,3.9,3.7h8.5v6.4h-5.9v-2.5h-6.4v8.3h14.7C191.8,184,190.3,176.5,190.3,172.2"/>
		<path class="st0" d="M2.2,197.8h53.3V190H2.2V197.8z M138.5,197.8h53.3V190h-53.3V197.8z"/>
</svg>
