<?xml version="1.0" encoding="UTF-8" standalone="no"?>
<svg
   xmlns:dc="http://purl.org/dc/elements/1.1/"
   xmlns:cc="http://creativecommons.org/ns#"
   xmlns:rdf="http://www.w3.org/1999/02/22-rdf-syntax-ns#"
   xmlns:svg="http://www.w3.org/2000/svg"
   xmlns="http://www.w3.org/2000/svg"
   width="194.19966"
   height="246.62781"
   viewBox="0 0 194.19967 246.62781"
   version="1.1">
  <title
     id="title2">GlasgowWarriorsLogo</title>
  <path
     d="M 190.67535,37.6872 A 259.33406,259.33406 0 0 0 128.01709,22.08305 C 122.6776,16.6967 115.76462,11.85787 106.8071,8.13379 A 6.8858481,6.8858481 0 0 0 103.63547,5.61078 L 99.862062,4.13102 c 0,0 -1.558688,-0.61164 -2.762231,-0.61164 -1.203544,0 -2.762232,0.61164 -2.762232,0.61164 l -3.773405,1.47976 a 6.8858481,6.8858481 0 0 0 -3.1741,2.52794 C 78.435039,11.8628 71.522062,16.70164 66.180103,22.08799 A 259.33406,259.33406 0 0 0 3.521845,37.69213 v 89.33845 c 0,15.6806 5.0657349,30.32289 12.836977,43.56434 H 4.6144061 a 0.91005658,0.91005658 0 0 0 -0.8977252,1.0605 l 7.9068871,47.04425 a 0.91252285,0.91252285 0 0 0 0.897725,0.76208 h 49.138123 c 19.05693,14.75574 35.440415,23.20028 35.440415,23.20028 0,0 16.383489,-8.44454 35.440419,-23.20028 h 51.68332 a 0.91498913,0.91498913 0 0 0 0.90512,-0.80894 l 5.42581,-47.04179 a 0.91005658,0.91005658 0 0 0 -0.90512,-1.0161 h -11.81347 c 7.77124,-13.24145 12.82464,-27.88374 12.82464,-43.56434 z"
     id="path4"
     style="stroke-width:0.24662779" />
  <path
     d="m 51.08155,127.80993 c 4.917758,-2.01495 6.72554,-9.3472 6.72554,-9.3472 -2.700575,2.26898 -7.191667,1.9311 -7.191667,1.9311 a 11.754281,11.754281 0 0 0 4.382576,-7.71205 c -0.0148,-0.0271 -0.03206,-0.0493 -0.04933,-0.0765 -3.356604,3.16424 -8.358216,6.52331 -15.586876,8.56045 v 0 c 0,0 2.25911,2.10867 6.224885,3.31468 -11.783876,8.50866 -9.241143,15.00977 -9.241143,15.00977 6.683613,-7.92909 19.999048,0.95198 27.323893,-5.0756 2.826355,-2.32817 7.058488,-7.35198 6.165695,-14.48692 -7.08315,8.63444 -18.753577,7.88223 -18.753577,7.88223 z"
     id="path6"
     style="fill:#ffffff;stroke-width:0.24662779" />
  <path
     d="m 143.11565,127.80993 c -4.91776,-2.01495 -6.72801,-9.3472 -6.72801,-9.3472 2.7129,2.26898 7.19413,1.9311 7.19413,1.9311 a 11.754281,11.754281 0 0 1 -4.38257,-7.71205 c 0.0148,-0.0271 0.0321,-0.0493 0.0493,-0.0765 3.35661,3.16424 8.35822,6.52331 15.58688,8.56045 v 0 c 0,0 -2.25911,2.10867 -6.22489,3.31468 11.78141,8.50866 9.24115,15.00977 9.24115,15.00977 -6.68362,-7.92909 -19.99905,0.95198 -27.3239,-5.0756 -2.82882,-2.32817 -7.06095,-7.35198 -6.16569,-14.48692 7.08315,8.63444 18.75358,7.88223 18.75358,7.88223 z"
     id="path8"
     style="fill:#ffffff;stroke-width:0.24662779" />
  <path
     d="M 87.501077,56.30759 C 87.370364,51.76471 86.852445,40.26446 84.874491,31.73113 a 5.0435385,5.0435385 0 0 0 -6.570165,-3.61556 10.70118,10.70118 0 0 0 -4.012634,2.5304 c -9.396519,9.37186 -12.950426,20.82772 -14.089846,30.2489 9.768927,-2.67838 20.065637,-3.97071 27.299231,-4.58728 z"
     id="path10"
     style="fill:#ffffff;stroke-width:0.24662779" />
  <path
     d="m 134.00275,60.89487 c -1.13942,-9.42118 -4.68593,-20.87211 -14.08985,-30.2489 a 10.711045,10.711045 0 0 0 -4.01017,-2.5304 5.0460048,5.0460048 0 0 0 -6.57263,3.61556 c -1.97302,8.53333 -2.49587,20.03358 -2.62658,24.57646 7.23359,0.61657 17.5377,1.9089 27.29923,4.58728 z"
     id="path12"
     style="fill:#ffffff;stroke-width:0.24662779" />
  <path
     d="m 90.687508,97.41798 a 0.47845793,0.47845793 0 0 0 -0.821271,-0.3872 c -2.838686,2.90034 -7.721916,5.68477 -15.194738,3.17656 C 63.097256,96.32295 60.714831,83.66355 60.581652,75.89477 c -5.581187,1.36632 -6.587428,2.38736 -8.195441,3.09765 2.029746,10.42742 7.99074,24.41615 24.593724,34.36265 a 65.869352,65.869352 0 0 0 8.797213,-8.15351 5.2753686,5.2753686 0 0 1 1.245471,-1.02844 3.9460448,3.9460448 0 0 1 2.947202,-0.42174 0.4932556,0.4932556 0 0 0 0.604238,-0.49325 34.33059,34.33059 0 0 1 0.113449,-5.84015 z"
     id="path14"
     style="fill:#ffffff;stroke-width:0.24662779" />
  <path
     d="m 103.51215,97.41798 a 0.47845793,0.47845793 0 0 1 0.82127,-0.3872 c 2.83869,2.90034 7.72192,5.68477 15.19721,3.17656 11.57178,-3.88439 13.9542,-16.54379 14.08738,-24.31257 5.58119,1.36632 6.58743,2.38736 8.19544,3.09765 -2.02975,10.42742 -7.99074,24.41615 -24.59372,34.36265 a 65.869352,65.869352 0 0 1 -8.79722,-8.15351 5.2753686,5.2753686 0 0 0 -1.23314,-1.02844 3.9460448,3.9460448 0 0 0 -2.95953,-0.42174 0.4932556,0.4932556 0 0 1 -0.60424,-0.49325 34.33059,34.33059 0 0 0 -0.11345,-5.84015 z"
     id="path16"
     style="fill:#ffffff;stroke-width:0.24662779" />
  <path
     d="m 86.23341,78.44984 c 0.562311,0.44639 1.129555,0.88293 1.714063,1.28986 L 87.454217,59.97988 c -9.445844,0.8336 -23.974688,2.82142 -35.285039,7.51475 v 8.09186 c 0.123314,-0.0641 0.246628,-0.12085 0.367476,-0.18004 0.60917,-0.29349 1.94096,-0.90266 3.741343,-1.58088 13.988729,-4.92269 25.703549,1.67707 29.955413,4.62427 z"
     id="path18"
     style="fill:#ffffff;stroke-width:0.24662779" />
  <path
     d="m 107.97118,78.44984 c -0.56231,0.44639 -1.12955,0.88293 -1.72639,1.28986 l 0.49325,-19.75982 c 9.44585,0.8336 23.97469,2.82142 35.28504,7.51475 v 8.09186 c -0.12331,-0.0641 -0.24662,-0.12085 -0.36747,-0.18004 -0.60917,-0.29349 -1.94096,-0.90266 -3.74135,-1.58088 -13.97639,-4.92269 -25.69121,1.67707 -29.94308,4.62427 z"
     id="path20"
     style="fill:#ffffff;stroke-width:0.24662779" />
  <path
     d="m 105.15963,107.62591 c -1.01118,0 -3.05079,1.32932 -4.2568,2.18019 -0.36501,0.24662 -0.83607,-0.074 -0.77441,-0.54998 0.34528,-2.64879 0.50805,-9.92924 -0.305819,-13.92954 a 50.312071,50.312071 0 0 0 -1.600614,-6.1657 1.1566844,1.1566844 0 0 0 -1.112291,-0.76701 h -0.0099 a 1.1566844,1.1566844 0 0 0 -1.112292,0.76701 50.312071,50.312071 0 0 0 -1.600614,6.1657 c -0.813872,4.0003 -0.651098,11.28075 -0.305819,13.92954 0.06166,0.47599 -0.409402,0.80894 -0.774411,0.54998 -1.20601,-0.85087 -3.245622,-2.18019 -4.256796,-2.18019 -1.373717,0 -2.589592,3.04092 -2.034679,5.47267 a 0.79907407,0.79907407 0 0 0 0.660962,0.62643 c 1.39838,0.1973 5.401149,1.00624 6.525772,3.90165 a 1.9187643,1.9187643 0 0 0 1.233139,1.19615 4.5675468,4.5675468 0 0 0 3.324543,0 1.9187643,1.9187643 0 0 0 1.233139,-1.19615 c 1.12463,-2.89541 5.1274,-3.69941 6.52578,-3.90165 a 0.79907407,0.79907407 0 0 0 0.66096,-0.62643 c 0.56971,-2.43175 -0.64617,-5.47267 -2.01988,-5.47267 z"
     id="path22"
     style="fill:#ffffff;stroke-width:0.24662779" />
  <path
     d="m 87.091674,91.48165 a 16.561057,16.561057 0 0 0 -2.466278,-2.17526 c -0.579575,1.74366 -2.264043,2.76717 -3.881921,2.30351 -1.691867,-0.49326 -2.666047,-2.41449 -2.172791,-4.30859 0.03699,-0.14058 0.08385,-0.27622 0.133179,-0.4094 a 13.140329,13.140329 0 0 0 -3.403464,-0.0296 0.91252285,0.91252285 0 0 0 -0.826203,0.81634 v 0 c -0.08385,1.86451 0.448863,6.25201 7.369239,6.25201 a 12.499097,12.499097 0 0 0 4.905427,-0.93471 0.9519833,0.9519833 0 0 0 0.342812,-1.5143 z"
     id="path24"
     style="fill:#ffffff;stroke-width:0.24662779" />
  <path
     d="m 119.723,87.68852 v 0 a 0.91252285,0.91252285 0 0 0 -0.8262,-0.82128 13.140329,13.140329 0 0 0 -3.40347,0.0296 c 0.0493,0.13318 0.0962,0.26882 0.13318,0.4094 0.49326,1.8941 -0.49325,3.82273 -2.17279,4.30859 -1.61788,0.46366 -3.30235,-0.55985 -3.88192,-2.3035 a 16.561057,16.561057 0 0 0 -2.46628,2.17525 0.95444958,0.95444958 0 0 0 0.33541,1.52416 12.499097,12.499097 0 0 0 4.90543,0.93472 c 6.92778,-0.005 7.46049,-4.39244 7.37664,-6.25694 z"
     id="path26"
     style="fill:#ffffff;stroke-width:0.24662779" />
  <path
     d="m 68.367692,75.90217 c 0,0 12.713663,0.45626 21.629258,11.06126 a 1.5414237,1.5414237 0 0 1 0.355144,0.96431 v 0.0197 a 1.1640832,1.1640832 0 0 1 -1.928629,0.89526 30.421539,30.421539 0 0 0 -16.7115,-7.39883 c 0,0 -3.26042,-0.66096 -3.344273,-5.54173 z"
     id="path28"
     style="fill:#ffffff;stroke-width:0.24662779" />
  <path
     d="m 125.8369,75.90217 c 0,0 -12.71366,0.45626 -21.62926,11.06126 a 1.5562214,1.5562214 0 0 0 -0.35514,0.96431 v 0.0197 a 1.1640832,1.1640832 0 0 0 1.92863,0.89526 30.421539,30.421539 0 0 1 16.71396,-7.39883 c 0,0 3.25796,-0.66096 3.34181,-5.54173 z"
     id="path30"
     style="fill:#ffffff;stroke-width:0.24662779" />
  <path
     d="m 111.27353,219.45188 c -5.76616,3.91399 -10.72091,6.95244 -14.173699,8.97972 -3.45279,-2.02975 -8.385346,-5.0682 -14.151504,-8.97972 h -9.971161 a 265.81297,265.81297 0 0 0 24.122665,15.58441 265.08542,265.08542 0 0 0 24.169519,-15.58441 z"
     id="path32"
     style="fill:#6cace4;stroke-width:0.24662779" />
  <path
     d="m 106.11408,128.82357 a 0.53024977,0.53024977 0 0 0 0.1825,1.02843 c 0.86566,0 3.78081,0 4.66127,0.0419 a 0.42913237,0.42913237 0 0 1 0.22196,0.78181 4.6637317,4.6637317 0 0 1 -1.21834,0.62644 c -3.4084,1.15668 -12.676669,0.0616 -19.62664,0.90512 a 11.127846,11.127846 0 0 1 -4.382576,-0.33295 c -1.151752,-0.33541 -2.328166,-0.90266 -3.033522,-1.85957 a 0.43406493,0.43406493 0 0 1 0.303352,-0.69056 c 1.413178,-0.14304 5.05587,-0.1825 6.567699,-0.17511 a 0.53024977,0.53024977 0 0 0 0.182504,-1.02843 c -2.177723,-0.78675 -5.462806,-1.67707 -6.185425,-2.36763 a 1.1418867,1.1418867 0 0 1 -0.06166,-1.59568 c 3.378801,-3.60077 10.572934,3.83506 20.470108,2.21965 3.31221,-0.54258 5.47267,-0.41434 6.7798,0.0617 a 0.54011488,0.54011488 0 0 1 0.12085,0.95938 c -0.72016,0.46366 -3.69942,0.96185 -4.98188,1.42551 z"
     id="path34"
     style="fill:#ffffff;stroke-width:0.24662779" />
  <path
     d="m 38.099062,147.4341 c 0,-2.06428 1.129556,-3.42566 3.349206,-3.42566 h 8.052397 l 0.986512,5.25564 h -6.190358 c -0.389672,0 -0.508053,0.19483 -0.508053,0.54505 v 16.74356 c 0,0.35021 0.118381,0.54504 0.508053,0.54504 h 2.564929 V 153.5332 h 5.489935 v 18.71166 h -9.852781 c -3.230824,0 -4.39984,-1.24794 -4.39984,-4.36285 z"
     id="path36"
     style="fill:#ffffff;stroke-width:0.24662779" />
  <path
     d="m 54.52694,144.00844 h 5.800686 v 22.97091 h 5.697102 l -0.986511,5.25811 H 54.52694 Z"
     id="path38"
     style="fill:#ffffff;stroke-width:0.24662779" />
  <path
     d="m 151.74269,144.00844 h 5.76369 l -4.4393,28.22902 h -5.13973 l -2.33556,-14.71875 -2.29857,14.71875 h -5.13973 l -4.4393,-28.22902 h 5.76123 l 1.79052,16.43034 2.29857,-16.43034 h 4.09402 l 2.25664,16.43034 z"
     id="path40"
     style="fill:#ffffff;stroke-width:0.24662779" />
  <path
     d="m 78.178546,144.11942 h -6.022651 l -5.090398,28.17723 h 5.67244 l 0.263891,-1.82751 3.793136,-3.79314 0.295953,2.12347 0.505587,3.49718 h 5.67244 z m -2.1136,17.05431 -2.05441,2.05195 1.176415,-8.8786 z"
     id="path42"
     style="fill:#ffffff;stroke-width:0.24662779" />
  <path
     d="m 99.289885,152.28773 v -4.72785 a 3.5514403,3.5514403 0 0 0 -3.55144,-3.55144 h -6.688546 c -3.228358,0 -4.394907,1.24547 -4.394907,4.35791 v 7.31252 a 0.3132173,0.3132173 0 0 1 0,0.0493 c -0.110983,1.49457 1.008707,2.81649 2.419419,3.32455 l 5.309896,1.90643 a 2.0100166,2.0100166 0 0 1 1.329324,1.89163 v 3.83507 c 0,0.42666 -0.115915,0.58204 -0.582042,0.58204 h -2.407087 a 0.43406493,0.43406493 0 0 1 -0.434065,-0.43407 v -1.0235 0 -1.85218 h -5.635445 v 4.73526 a 3.5514403,3.5514403 0 0 0 3.55144,3.55144 h 6.68608 c 3.228358,0 4.394907,-1.23314 4.394907,-4.35792 v -7.31991 c 0,0 0,-0.0271 0,-0.0395 v -0.53272 a 3.5021147,3.5021147 0 0 0 -2.318301,-3.29741 l -5.408548,-1.94343 a 2.0075503,2.0075503 0 0 1 -1.33179,-1.88917 v -3.30481 c 0,-0.42666 0.118381,-0.58204 0.584508,-0.58204 h 2.397222 a 0.43406493,0.43406493 0 0 1 0.434065,0.43406 v 2.84856 0 0.0271 h 5.637912 z"
     id="path44"
     style="fill:#ffffff;stroke-width:0.24662779" />
  <path
     d="m 115.68817,156.62838 v -3.10257 h -5.48994 v 13.56453 h -2.56986 c -0.3872,0 -0.50559,-0.19484 -0.50559,-0.54505 v -16.73616 c 0,-0.35022 0.11839,-0.54505 0.50559,-0.54505 h 6.19283 l -0.97418,-5.25564 h -8.0598 c -2.21965,0 -3.34921,1.36138 -3.34921,3.42566 v 20.44051 c 0,3.11491 1.16902,4.36285 4.39984,4.36285 h 9.85032 v -12.62241 l -1.47977,-1.4921 z"
     id="path46"
     style="fill:#ffffff;stroke-width:0.24662779" />
  <path
     d="m 132.47612,156.62838 v -8.95998 c 0,-2.21965 -1.16655,-3.65996 -3.81533,-3.65996 h -7.00916 c -2.64632,0 -3.81533,1.44031 -3.81533,3.65996 v 8.95998 l -1.4995,1.49457 1.4921,1.4921 v 8.61224 c 0,2.14073 0.89526,4.01017 4.04963,4.01017 h 6.54303 c 3.15437,0 4.04963,-1.86944 4.04963,-4.01017 v -8.61224 l 1.49456,-1.4921 z m -5.72423,10.09201 c 0,0.42667 -0.0765,0.58451 -0.54505,0.58451 h -2.14073 c -0.46612,0 -0.54504,-0.15784 -0.54504,-0.58451 v -17.22202 c 0,-0.35021 0.11591,-0.54504 0.49325,-0.54504 h 2.21965 c 0.38967,0 0.50559,0.19483 0.50559,0.54504 z"
     id="path48"
     style="fill:#ffffff;stroke-width:0.24662779" />
  <path
     d="m 35.785694,176.70882 h 7.477754 l -5.761225,36.62423 h -6.658951 l -3.045853,-19.09146 -2.976797,19.09146 H 18.14934 l -5.758759,-36.62423 h 7.477754 l 2.323234,21.3333 2.98173,-21.32344 h 5.304964 l 2.932405,21.32344 z"
     id="path50"
     style="fill:#ffffff;stroke-width:0.24662779" />
  <path
     d="m 55.296419,176.74335 h -7.818102 l -6.609625,36.56503 h 7.364307 l 0.342812,-2.37255 4.932556,-4.93256 0.382273,2.75483 0.65603,4.54042 h 7.364306 z m -2.744968,22.12991 -2.66358,2.66358 1.52416,-11.52985 z"
     id="path52"
     style="fill:#ffffff;stroke-width:0.24662779" />
  <path
     d="m 180.29972,187.45193 v -6.13364 a 4.6094736,4.6094736 0 0 0 -4.60948,-4.60947 h -8.67883 c -4.19267,0 -5.7045,1.61541 -5.7045,5.65271 v 9.49024 c 0,0.0222 0,0.0419 0,0.0641 -0.14551,1.94096 1.30466,3.65502 3.13711,4.31352 l 6.89078,2.46628 a 2.6068558,2.6068558 0 0 1 1.72639,2.45394 v 4.97942 c 0,0.55245 -0.15291,0.73988 -0.75714,0.73988 h -3.11738 a 0.56231138,0.56231138 0 0 1 -0.56231,-0.56231 v -1.32686 0 -2.40708 h -7.31745 v 6.13363 a 4.6094736,4.6094736 0 0 0 4.60208,4.62674 h 8.67636 c 4.19267,0 5.7045,-1.61541 5.7045,-5.65518 v -9.4779 c 0,-0.0173 0,-0.0345 0,-0.0543 v -0.69056 a 4.5453503,4.5453503 0 0 0 -3.00886,-4.27899 l -7.01902,-2.52054 a 2.6068558,2.6068558 0 0 1 -1.7264,-2.45395 v -4.28885 c 0,-0.55245 0.15291,-0.75468 0.75468,-0.75468 h 3.11491 a 0.56477766,0.56477766 0 0 1 0.56231,0.56231 v 3.69941 0 0.0321 h 7.31745 z"
     id="path54"
     style="fill:#ffffff;stroke-width:0.24662779" />
  <path
     d="m 79.643515,201.67002 a 3.1691672,3.1691672 0 0 0 3.285082,-3.23329 v -16.97786 c 0,-2.88061 -1.516761,-4.75005 -4.952286,-4.75005 H 62.009627 l 1.302195,6.45178 h 0.771945 v 30.17245 h 7.327312 v -11.66303 h 0.959382 l 3.534177,11.66303 h 7.578872 z m -3.946045,-6.65895 c 0,0.55491 -0.150443,0.75715 -0.707822,0.75715 h -3.581035 v -12.64215 h 3.585968 c 0.505587,0 0.707822,0.30336 0.707822,0.75715 z"
     id="path56"
     style="fill:#ffffff;stroke-width:0.24662779" />
  <path
     d="m 101.80302,201.67002 a 3.1691672,3.1691672 0 0 0 3.28508,-3.23329 v -16.97786 c 0,-2.88061 -1.51676,-4.75005 -4.95228,-4.75005 H 84.169135 l 1.299729,6.45178 h 0.779343 v 30.17245 h 7.327312 v -11.66303 h 0.959382 l 3.529244,11.66303 h 7.578875 z m -3.946042,-6.65895 c 0,0.55491 -0.150443,0.75715 -0.707822,0.75715 H 93.56812 v -12.64215 h 3.585969 c 0.493255,0 0.707821,0.30336 0.707821,0.75715 z"
     id="path58"
     style="fill:#ffffff;stroke-width:0.24662779" />
  <polygon
     points="436.77,865.04 466.48,865.04 466.48,798.63 458.62,790.77 466.48,782.91 466.48,716.5 436.77,716.5 "
     id="polygon60"
     transform="scale(0.2466278)"
     style="fill:#ffffff" />
  <path
     d="m 155.71093,201.67002 a 3.1691672,3.1691672 0 0 0 3.29248,-3.23329 v -16.97786 c 0,-2.88061 -1.51676,-4.75005 -4.95229,-4.75005 h -13.90241 v 16.37855 l 1.93603,1.9385 -1.93603,1.93849 v 16.36869 h 7.32485 v -11.66303 h 0.96185 l 3.53664,11.66303 h 7.57887 z m -3.94605,-6.65895 c 0,0.55491 -0.15291,0.75715 -0.70782,0.75715 h -3.5835 v -12.64215 h 3.58843 c 0.50559,0 0.70782,0.30336 0.70782,0.75715 z"
     id="path62"
     style="fill:#ffffff;stroke-width:0.24662779" />
  <path
     d="m 137.09546,193.08737 v -11.6285 c 0,-2.88061 -1.51429,-4.75005 -4.94982,-4.75005 h -9.09563 c -3.43553,0 -4.95229,1.86944 -4.95229,4.75005 v 11.6285 l -1.93849,1.9385 1.93849,1.93849 v 11.17471 c 0,2.77702 1.16162,5.20384 5.25564,5.20384 h 8.48893 c 4.09155,0 5.25317,-2.42682 5.25317,-5.20384 v -11.17471 l 1.9385,-1.93849 z m -7.42596,13.07127 c 0,0.55492 -0.10112,0.75715 -0.70782,0.75715 h -2.7795 c -0.6067,0 -0.70782,-0.20223 -0.70782,-0.75715 V 183.8339 c 0,-0.45627 0.15291,-0.70783 0.65849,-0.70783 h 2.87815 c 0.50559,0 0.6585,0.24663 0.6585,0.70783 z"
     id="path64"
     style="fill:#ffffff;stroke-width:0.24662779" />
  <path
     d="M 184.37648,123.17579 V 41.80095 l -1.6968,-0.61411 a 251.56035,251.56035 0 0 0 -49.74483,-12.39798 57.114066,57.114066 0 0 1 3.84739,5.83275 v 0 l 0.0197,0.0321 a 59.908359,59.908359 0 0 1 2.95954,5.88208 v 0.0173 a 66.441529,66.441529 0 0 1 4.19267,13.49794 c 0,0 0,0.0123 0,0.0173 0.36501,1.83245 0.64616,3.60817 0.85826,5.31237 v 0.069 c 0.2121,1.70667 0.35515,3.33688 0.4464,4.87583 l 1.06297,0.37488 a 0.92238797,0.92238797 0 0 1 0.61657,0.88786 l -0.24663,13.5004 a 34.786851,34.786851 0 0 0 4.17787,17.26395 c -3.23822,-1.01364 -7.17933,-2.93487 -7.17933,-2.93487 0,0 3.67229,6.7428 13.01701,13.16252 -5.94373,0.46366 -13.42641,-1.19861 -13.42641,-1.19861 7.54927,13.77663 33.09991,17.43906 33.09991,17.43906 0,0 -3.73394,3.92384 -13.46094,5.36662 2.76716,2.83868 7.30758,9.35212 7.23112,21.51334 l -4.37024,-2.91514 c 1.72639,7.39883 1.62281,16.06287 -3.7956,23.94263 0,0 0.14304,-0.0617 0.40693,-0.18498 5.26057,-2.44408 9.26334,-7.55421 11.83814,-13.2735 0.8262,2.51067 1.15668,4.0151 1.15668,4.0151 v 0 c 0,0 5.15946,-13.05895 2.64385,-30.33522 0,0 3.41333,2.73263 5.42581,6.50111 0.98652,-6.06212 0.92239,-10.11174 0.92239,-10.11174 v -4.14335 z M 143.21923,35.76103 a 246.48229,246.48229 0 0 1 24.73923,6.04238 l -17.90517,17.90765 c -0.78675,-6.90805 -2.66359,-15.44877 -6.83406,-23.95003 z m 17.51057,65.05055 a 28.189557,28.189557 0 0 1 -8.17818,-14.60037 l 26.63581,-26.6358 v 51.8535 c -5.86481,-2.06921 -12.86904,-5.40115 -18.45763,-10.62719 z"
     id="path66"
     style="fill:#6cace4;stroke-width:0.24662779" />
  <path
     d="m 9.8207189,41.80095 v 81.38717 0 4.14335 c 0,0 -0.061657,4.04963 0.9223881,10.11174 2.022348,-3.76848 5.425811,-6.50111 5.425811,-6.50111 -2.518069,17.28367 2.638918,30.33522 2.64385,30.33522 v 0 c 0,0 0.330482,-1.50443 1.154219,-4.0151 2.564929,5.7193 6.567698,10.82942 11.838134,13.27351 0.263892,0.12331 0.409402,0.18497 0.409402,0.18497 -5.425812,-7.89209 -5.512131,-16.53886 -3.795602,-23.94263 l -4.370244,2.91514 c -0.07892,-12.16122 4.463963,-18.67466 7.22866,-21.51334 -9.727,-1.44771 -13.460945,-5.35922 -13.460945,-5.35922 0,0 25.55064,-3.6501 33.10485,-17.41686 0,0 -7.482688,1.66227 -13.426418,1.19861 9.344727,-6.41232 13.014549,-13.16252 13.014549,-13.16252 0,0 -3.990438,1.94589 -7.240992,2.95953 A 34.77452,34.77452 0 0 0 47.507913,79.07134 L 47.261285,65.603 a 0.92238797,0.92238797 0 0 1 0.614103,-0.88786 l 1.062966,-0.37488 c 0,0 0,-0.0148 0,-0.0197 0.09125,-1.51429 0.23183,-3.11984 0.436531,-4.79691 0,-0.0641 0.01726,-0.12825 0.02466,-0.19484 0.06412,-0.51051 0.133179,-1.0309 0.2121,-1.55622 0,-0.0395 0,-0.0765 0.01726,-0.11591 q 0.246628,-1.6894 0.596839,-3.45279 l 0.05919,-0.29595 q 0.150443,-0.73989 0.31815,-1.4921 c 0.0222,-0.10112 0.04439,-0.20224 0.06906,-0.30582 q 0.402004,-1.76832 0.922388,-3.58597 c 0.03206,-0.11345 0.06659,-0.2269 0.09865,-0.34035 0.143044,-0.49325 0.293487,-0.98651 0.451328,-1.47976 0.04439,-0.13811 0.08632,-0.27869 0.133179,-0.4168 Q 52.54898,45.456 52.842467,44.61747 l 0.04933,-0.13811 c 0.219498,-0.61657 0.451329,-1.23314 0.69549,-1.84971 0.04193,-0.11099 0.08879,-0.22443 0.135645,-0.33542 q 0.295954,-0.73988 0.614104,-1.47976 c 0.06905,-0.16278 0.140577,-0.32555 0.212099,-0.49326 q 0.325549,-0.73988 0.673294,-1.47977 l 0.167707,-0.36007 q 0.438998,-0.91746 0.919922,-1.82998 c 0.04439,-0.0863 0.09125,-0.17017 0.138111,-0.24663 q 0.406936,-0.76948 0.843468,-1.53649 c 0.04439,-0.0765 0.08385,-0.15291 0.128246,-0.22936 v 0 A 57.114066,57.114066 0 0 1 61.267277,28.80616 251.56035,251.56035 0 0 0 11.519983,41.18687 Z M 32.63379,101.55393 c -5.448008,4.80678 -12.084762,7.91675 -17.641286,9.86511 V 59.55568 l 26.635802,26.6358 A 28.687746,28.687746 0 0 1 32.63379,101.55393 Z M 44.146376,59.70119 26.241198,41.79355 a 246.70425,246.70425 0 0 1 24.739234,-6.03252 c -4.170476,8.50126 -6.04978,17.04198 -6.834056,23.94016 z"
     id="path68"
     style="fill:#6cace4;stroke-width:0.24662779" />
  <path
     d="M 97.099831,83.45885 H 95.551008 A 3.5613054,3.5613054 0 0 1 91.989703,79.9888 L 90.263308,12.20315 a 2.927472,2.927472 0 0 1 1.86204,-2.80416 l 3.857259,-1.5069 a 3.0779149,3.0779149 0 0 1 2.23938,0 l 3.869593,1.5143 a 2.927472,2.927472 0 0 1 1.86204,2.80415 l -1.7264,67.78565 a 3.5613054,3.5613054 0 0 1 -3.561303,3.47006 h -1.548823"
     id="path70"
     style="fill:#ffffff;stroke-width:0.24662779" />
  <path
     d="m 97.099831,3.52431 c 1.203543,0 2.762231,0.61164 2.762231,0.61164 l 3.773408,1.47977 a 6.8858481,6.8858481 0 0 1 3.1741,2.523 c 8.95505,3.72408 15.86803,8.56292 21.20999,13.94927 a 259.33406,259.33406 0 0 1 62.65826,15.60414 v 89.33845 c 0,15.6806 -5.06574,30.32289 -12.82465,43.56434 h 11.81347 a 0.91005658,0.91005658 0 0 1 0.90513,1.0161 l -5.42582,47.04179 a 0.91498913,0.91498913 0 0 1 -0.90512,0.80894 h -51.70058 c -19.05693,14.75574 -35.440419,23.20028 -35.440419,23.20028 0,0 -16.383485,-8.44454 -35.440415,-23.20028 H 12.506496 A 0.91252285,0.91252285 0 0 1 11.60877,218.69967 L 3.7043495,171.65295 a 0.91005658,0.91005658 0 0 1 0.8977252,-1.06297 H 16.361288 C 8.5900462,157.34854 3.5366426,142.70624 3.5366426,127.02565 V 37.6872 A 259.33406,259.33406 0 0 1 66.18257,22.08305 C 71.522062,16.6967 78.435039,11.85787 87.39256,8.13379 a 6.8858481,6.8858481 0 0 1 3.171634,-2.52301 l 3.773405,-1.47976 c 0,0 1.558688,-0.61164 2.762232,-0.61164 m 0,-3.51938 c -1.780653,0 -3.68462,0.71276 -4.049629,0.85333 L 89.281729,2.3331 A 10.358368,10.358368 0 0 0 85.17291,5.25071 C 77.189568,8.6813 70.266726,13.21185 64.562225,18.73632 A 263.00388,263.00388 0 0 0 2.2541781,34.40705 L 0,35.26778 v 91.7628 c 0,13.26611 3.4897833,26.70979 10.387963,40.03756 H 4.6144061 a 4.4393004,4.4393004 0 0 0 -4.37517714,5.17918 l 7.90688724,47.04425 a 4.4245027,4.4245027 0 0 0 4.3751768,3.69942 h 47.937046 c 18.674656,14.32661 34.357718,22.46533 35.021147,22.81061 l 1.620345,0.8262 1.615412,-0.83114 c 0.668361,-0.34527 16.351427,-8.48399 35.021147,-22.8106 h 50.48718 a 4.4393004,4.4393004 0 0 0 4.40724,-3.92878 l 5.42581,-47.04425 a 4.4393004,4.4393004 0 0 0 -4.40724,-4.94489 h -5.83768 c 6.90558,-13.3179 10.38796,-26.77145 10.38796,-40.03756 v -91.7628 l -2.25418,-0.8706 A 263.00388,263.00388 0 0 0 129.63744,18.72892 C 123.93293,13.20445 117.01009,8.6739 109.02675,5.24331 A 10.358368,10.358368 0 0 0 104.91793,2.3257 L 101.14206,0.84593 C 100.78445,0.71276 98.880483,0 97.099831,0 Z"
     id="path72"
     style="fill:#ffffff;stroke-width:0.24662779" />
  <path
     d="m 76.984867,113.36247 a 65.869352,65.869352 0 0 0 8.797214,-8.15352 5.226043,5.226043 0 0 1 1.24547,-1.02843 3.9460448,3.9460448 0 0 1 2.947202,-0.42174 0.4932556,0.4932556 0 0 0 0.604239,-0.49325 34.589549,34.589549 0 0 1 0.108516,-5.84755 0.47599165,0.47599165 0 0 0 -0.818805,-0.3872 13.500406,13.500406 0 0 1 -6.599759,3.8104 38.562723,38.562723 0 0 1 -6.274212,4.46889 C 59.605006,101.26044 56.016572,84.57361 55.276688,77.57678 c -1.324391,0.56724 -2.019881,1.04076 -2.885545,1.42304 2.027281,10.42989 7.990741,24.40875 24.593724,34.36265 z"
     id="path74"
     style="fill:#6cace4;stroke-width:0.24662779" />
  <path
     d="m 117.21973,113.36247 a 65.869352,65.869352 0 0 1 -8.79722,-8.15352 5.2753686,5.2753686 0 0 0 -1.23314,-1.02843 3.9460448,3.9460448 0 0 0 -2.95953,-0.42174 0.4932556,0.4932556 0 0 1 -0.6067,-0.49325 34.081495,34.081495 0 0 0 -0.11099,-5.84755 0.47845793,0.47845793 0 0 1 0.82127,-0.3872 13.500406,13.500406 0 0 0 6.59976,3.8104 38.562723,38.562723 0 0 0 6.27668,4.46889 c 17.38973,-4.04963 20.97816,-20.73646 21.71805,-27.73329 1.32192,0.56724 2.01988,1.04076 2.88554,1.42304 -2.02975,10.42989 -7.99074,24.40875 -24.59372,34.36265 z"
     id="path76"
     style="fill:#6cace4;stroke-width:0.24662779" />
  <path
     d="m 107.32749,111.93203 c 0,-0.0395 0,-0.0789 0,-0.11838 0,-2.10127 -1.02844,-4.19268 -2.16786,-4.19268 -1.01118,0 -3.05326,1.32933 -4.2568,2.18019 -0.36747,0.25896 -0.83607,-0.074 -0.77441,-0.54998 0.34528,-2.64878 0.50559,-9.92923 -0.308285,-13.92953 a 50.312071,50.312071 0 0 0 -1.600614,-6.1657 1.1542181,1.1542181 0 0 0 -1.109825,-0.76701 v 0 28.42878 a 7.7046524,7.7046524 0 0 1 -1.659805,-0.31321 1.916298,1.916298 0 0 1 -1.233139,-1.19615 c -1.124623,-2.89294 -5.124926,-3.69941 -6.523306,-3.89918 a 0.80154034,0.80154034 0 0 1 -0.663429,-0.62644 c 0,-0.0518 -0.01726,-0.10358 -0.02713,-0.15291 a 6.2643461,6.2643461 0 0 0 0.02713,2.46628 0.80154034,0.80154034 0 0 0 0.663429,0.62644 c 1.39838,0.1973 5.398683,1.00624 6.523306,3.90165 a 1.9212305,1.9212305 0 0 0 1.233139,1.19614 4.560148,4.560148 0 0 0 3.322076,0 1.9212305,1.9212305 0 0 0 1.245473,-1.19614 c 1.12462,-2.89541 5.12492,-3.69942 6.5233,-3.90165 a 0.80400662,0.80400662 0 0 0 0.66343,-0.62644 5.2038465,5.2038465 0 0 0 0.0912,-0.55491 c 0,-0.0518 0,-0.10112 0.0148,-0.15044 0.007,-0.15538 0.0148,-0.30582 0.0173,-0.45873 z"
     id="path78"
     style="fill:#6cace4;stroke-width:0.24662779" />
  <path
     d="m 90.332364,87.75757 v -0.0197 a 1.5414237,1.5414237 0 0 0 -0.51052,-0.89033 c -7.645462,-6.5233 -16.390883,-7.44322 -20.610685,-7.45555 0.986511,1.74119 2.503272,2.04701 2.503272,2.04701 a 30.446202,30.446202 0 0 1 16.713966,7.39883 1.1344879,1.1344879 0 0 0 0.286088,0.19484 h 0.0222 a 1.0802298,1.0802298 0 0 0 0.295953,0.0814 h 0.0296 a 1.082696,1.082696 0 0 0 0.295953,0 h 0.02713 a 1.2553355,1.2553355 0 0 0 0.268824,-0.0814 l 0.04439,-0.0197 a 1.0974937,1.0974937 0 0 0 0.214566,-0.13811 0.4932556,0.4932556 0 0 0 0.05673,-0.0444 1.0136403,1.0136403 0 0 0 0.167707,-0.18744 c 0.01233,-0.0197 0.02713,-0.037 0.03946,-0.0543 a 1.1147576,1.1147576 0 0 0 0.120848,-0.26389 l 0.01233,-0.0296 a 1.1369542,1.1369542 0 0 0 0.04193,-0.33541 0.9519833,0.9519833 0 0 0 -0.01973,-0.20224 z"
     id="path80"
     style="fill:#6cace4;stroke-width:0.24662779" />
  <path
     d="m 103.87223,87.75757 v -0.0197 a 1.5414237,1.5414237 0 0 1 0.51052,-0.89033 c 7.64546,-6.5233 16.39088,-7.44322 20.61068,-7.45555 -0.98651,1.74119 -2.50327,2.04701 -2.50327,2.04701 a 30.446202,30.446202 0 0 0 -16.71396,7.39883 1.1344879,1.1344879 0 0 1 -0.29102,0.19484 h -0.0222 a 1.0580333,1.0580333 0 0 1 -0.29595,0.0814 h -0.0296 a 1.082696,1.082696 0 0 1 -0.29595,0 h -0.0271 a 1.2553355,1.2553355 0 0 1 -0.26883,-0.0814 l -0.0444,-0.0197 a 1.0974937,1.0974937 0 0 1 -0.21457,-0.13811 0.4932556,0.4932556 0 0 1 -0.0567,-0.0444 1.0136403,1.0136403 0 0 1 -0.16771,-0.18744 c 0,-0.0197 -0.0271,-0.037 -0.0395,-0.0543 a 1.1147576,1.1147576 0 0 1 -0.12084,-0.26389 l -0.0123,-0.0296 a 1.1369542,1.1369542 0 0 1 -0.0419,-0.33541 0.9519833,0.9519833 0 0 1 0.0247,-0.20224 z"
     id="path82"
     style="fill:#6cace4;stroke-width:0.24662779" />
  <path
     d="m 78.654537,30.64844 a 10.740641,10.740641 0 0 1 3.45279,-2.32077 4.9868141,4.9868141 0 0 0 -3.817799,-0.20963 10.711045,10.711045 0 0 0 -4.010168,2.5304 c -9.398985,9.37185 -12.950425,20.82772 -14.089846,30.2489 q 2.246779,-0.61411 4.513289,-1.13202 c 1.29233,-9.20662 4.925157,-20.1125 13.951734,-29.11688 z"
     id="path84"
     style="fill:#6cace4;stroke-width:0.24662779" />
  <path
     d="m 115.55745,30.6509 a 10.676517,10.676517 0 0 0 -3.46512,-2.3183 4.976949,4.976949 0 0 1 3.8178,-0.2121 10.72091,10.72091 0 0 1 4.01264,2.5304 c 9.39652,9.37186 12.95042,20.82772 14.08738,30.25137 -1.49457,-0.41187 -3.00393,-0.78674 -4.51329,-1.13449 -1.28247,-9.19675 -4.91529,-20.11249 -13.93941,-29.11688 z"
     id="path86"
     style="fill:#6cace4;stroke-width:0.24662779" />
  <path
     d="m 86.23341,74.61231 c -4.251864,-2.9472 -15.966684,-9.54696 -29.945548,-4.62427 -1.800382,0.67822 -3.132173,1.2874 -3.741343,1.57842 -0.120848,0.0616 -0.246628,0.11838 -0.367476,0.1825 v 3.83753 c 0.123314,-0.0641 0.246628,-0.12085 0.367476,-0.18004 0.60917,-0.29349 1.940961,-0.90266 3.741343,-1.58088 13.978864,-4.93256 25.693684,1.67707 29.945548,4.62427 0.562311,0.44639 1.129555,0.88293 1.714063,1.28986 l -0.09619,-3.90658 c -0.54998,-0.38721 -1.085162,-0.79908 -1.617878,-1.22081 z"
     id="path88"
     style="fill:#6cace4;stroke-width:0.24662779" />
  <path
     d="m 107.98105,74.61724 c 4.25186,-2.9472 15.96422,-9.54696 29.94555,-4.62427 1.80038,0.67823 3.13217,1.28986 3.73887,1.58088 0.12332,0.0592 0.24663,0.11592 0.36995,0.18004 v 3.83753 c -0.12332,-0.0641 -0.24663,-0.12085 -0.36995,-0.18004 -0.6067,-0.29102 -1.93849,-0.90265 -3.73887,-1.58088 -13.98133,-4.93256 -25.69369,1.67707 -29.94555,4.62427 -0.56478,0.44886 -1.12956,0.88293 -1.7264,1.28986 l 0.0962,-3.90658 c 0.56231,-0.38721 1.10736,-0.79661 1.63021,-1.22081 z"
     id="path90"
     style="fill:#6cace4;stroke-width:0.24662779" />
  <path
     d="m 102.09158,9.39899 -3.869593,-1.5069 a 3.0779149,3.0779149 0 0 0 -1.11969,-0.20963 v 75.77639 h 1.56362 a 3.5613054,3.5613054 0 0 0 3.561303,-3.47005 l 1.7264,-67.78565 a 2.927472,2.927472 0 0 0 -1.86204,-2.80416 z"
     id="path92"
     style="fill:#6cace4;stroke-width:0.24662779" />
  <path
     d="m 69.835127,119.92523 a 20.003981,20.003981 0 0 1 -5.845078,4.83144 18.669724,18.669724 0 0 1 -3.679687,4.09649 c -5.507199,4.53302 -14.400597,0.6363 -21.316041,1.79545 -4.029898,5.28524 -2.648782,8.83914 -2.648782,8.83914 6.683613,-7.92908 19.999048,0.95199 27.323893,-5.0756 2.826355,-2.32816 7.058488,-7.35197 6.165695,-14.48692 z"
     id="path94"
     style="fill:#6cace4;stroke-width:0.24662779" />
  <path
     d="m 39.361797,121.16331 v 0 l 0.01233,0.0123 0.0296,-0.0247 h -0.04193 z"
     id="path96"
     style="fill:#6cace4;stroke-width:0.24662779" />
  <path
     d="m 124.36453,119.92523 a 20.003981,20.003981 0 0 0 5.84508,4.83144 18.669724,18.669724 0 0 0 3.67969,4.09649 c 5.50473,4.53302 14.4006,0.6363 21.31604,1.79545 4.0299,5.28524 2.64878,8.83914 2.64878,8.83914 -6.68361,-7.92908 -19.99905,0.95199 -27.32389,-5.0756 -2.82636,-2.32816 -7.06096,-7.35197 -6.1657,-14.48692 z"
     id="path98"
     style="fill:#6cace4;stroke-width:0.24662779" />
  <path
     d="m 154.83786,121.16331 v 0 l -0.0123,0.0123 -0.0296,-0.0247 h 0.0419 z"
     id="path100"
     style="fill:#6cace4;stroke-width:0.24662779" />
  <path
     d="M 18.918818,44.10445 42.121562,67.30966 42.306533,77.2241 14.992504,49.91747 v -4.47383 q 1.953292,-0.68809 3.926314,-1.33919 z"
     id="path102"
     style="fill:#ffffff;stroke-width:0.24662779" />
  <path
     d="m 179.20222,49.91747 -27.30663,27.30663 0.18498,-9.91444 23.20027,-23.20521 q 1.97302,0.65356 3.91645,1.33919 z"
     id="path104"
     style="fill:#ffffff;stroke-width:0.24662779" />
</svg>
