<svg height="344.963766" viewBox="0 0 400 476.46219686" width="289.885518" xmlns="http://www.w3.org/2000/svg"><g fill-rule="evenodd"><path d="m191.261.128c-2.767.18-7.879.497-10.824.67-1.857.11-4.672.33-6.256.49-1.584.159-4.042.384-5.462.5-1.42.115-3.565.337-4.767.492-1.201.155-3.033.38-4.071.499-1.704.196-2.953.36-7.746 1.015-2.221.303-5.073.761-6.757 1.083-.822.158-1.737.287-2.033.287s-.92.084-1.386.187c-1.422.314-3.678.723-6.486 1.175-.698.113-1.681.296-2.185.407-1.136.253-4.78.996-5.979 1.221-1.761.33-2.909.568-4.767.991-1.038.237-2.602.59-3.475.786-.874.196-1.992.454-2.483.573-.492.119-1.877.443-3.079.722-2.162.501-2.541.596-4.667 1.177-.601.164-1.673.437-2.383.606-1.26.3-3.76.978-5.958 1.617-.601.174-1.853.523-2.781.774-.929.251-1.956.543-2.284.648-.328.106-.998.302-1.49.437-.491.135-1.519.447-2.284.693-.764.246-2.194.693-3.177.992-.983.3-2.101.659-2.483.798s-1.41.474-2.284.745c-4.789 1.483-7.135 2.248-8.749 2.851-.988.371-1.927.676-2.085.68-.159.003-.462.137-.674.298-.212.16-.569.294-.794.297-.225.004-.583.138-.795.298-.212.161-.577.292-.811.292s-.486.061-.561.136c-.138.138-.73.368-2.711 1.055-.601.209-1.852.657-2.78.996-.929.339-1.912.688-2.185.776-.273.087-1.301.493-2.284.902s-2.011.833-2.284.943c-.273.109-.765.314-1.092.455-.328.14-.909.364-1.291.497-.383.132-.964.356-1.291.497-.328.14-.864.367-1.192.503s-.864.359-1.192.496c-.327.137-.819.34-1.092.45-2.827 1.141-4.702 1.928-4.866 2.042-.109.076-1.003.47-1.986.875s-2.342.996-3.021 1.313c-.678.317-1.284.576-1.346.576s-1.161.497-2.441 1.105c-1.281.607-2.775 1.312-3.321 1.566s-1.708.795-2.582 1.201c-.874.407-2.17 1.03-2.88 1.385-.71.356-1.872.932-2.582 1.282-.71.349-1.425.719-1.589.822-.291.183-.583.323-1.589.763-.273.119-.63.302-.794.405s-1.326.698-2.582 1.321-3.016 1.499-3.912 1.945c-1.026.512-1.67.96-1.743 1.212-.692 2.396-1.539 5.747-1.782 7.053-.071.382-.258 1.187-.415 1.787-.557 2.139-1.633 6.999-2.066 9.335-.111.601-.345 1.807-.519 2.681s-.406 2.081-.515 2.682c-.109.6-.317 1.673-.462 2.383s-.366 1.961-.491 2.78c-.262 1.716-.673 4.285-1.095 6.852-.162.984-.393 2.458-.512 3.278-.12.819-.342 2.249-.494 3.177-.152.929-.375 2.582-.496 3.675-.12 1.092-.344 2.924-.497 4.071-.494 3.712-1.173 10.138-1.488 14.101-.118 1.475-.304 3.441-.415 4.37-.191 1.595-.306 3.443-.77 12.413-.108 2.075-.284 5.203-.391 6.951-.254 4.106-.253 28.825.001 33.863.107 2.13.282 5.616.388 7.746.253 5.083.511 8.928.779 11.619.12 1.201.308 3.212.417 4.468.109 1.257.332 3.446.495 4.866.164 1.42.391 3.431.506 4.469.114 1.038.333 2.781.486 3.873s.376 2.79.497 3.773c.121.984.342 2.503.491 3.377.15.874.372 2.304.494 3.178.263 1.891.721 4.631 1.094 6.554.148.764.374 2.06.502 2.88.261 1.681.733 4.113 1.006 5.186.1.395.182.915.182 1.155s.126.855.28 1.367.386 1.601.516 2.421c.13.819.353 1.936.495 2.482s.36 1.485.484 2.086c.125.6.357 1.606.517 2.234.652 2.567.869 3.482 1.092 4.618.129.655.355 1.594.503 2.085.275.917.863 3.153 1.384 5.263.161.656.427 1.606.59 2.112.163.507.296 1.054.296 1.216 0 .163.223 1 .496 1.86.273.861.597 1.923.721 2.359.124.437.336 1.152.472 1.589.135.437.402 1.331.593 1.986.191.656.416 1.416.5 1.689.085.273.397 1.301.695 2.284s.66 2.1.804 2.482c.145.383.369 1.053.499 1.49s.325 1.018.433 1.291.359 1.033.556 1.688c.327 1.081.916 2.741 2.608 7.349.321.873.658 1.812.75 2.085.802 2.396 2.648 7.094 3.303 8.407.155.31.281.65.281.757 0 .108.211.659.469 1.226.258.566.581 1.343.717 1.725s.362.963.503 1.291c.14.328.346.819.457 1.092.237.583.752 1.744 1.632 3.675.348.764.749 1.658.891 1.986.366.847 1.242 2.792 1.833 4.071.821 1.776 4.042 8.416 4.24 8.739.1.164.272.499.381.745s.289.648.4.894c.211.468 1.484 2.853 2.516 4.717.333.6 1.078 1.986 1.655 3.078 1.792 3.392 2.174 4.077 4.095 7.349 1.026 1.747 1.951 3.311 2.054 3.475s.386.678.628 1.142c.242.465.491.844.555.844.063 0 .24.285.395.633.154.348.816 1.443 1.471 2.433s1.4 2.136 1.655 2.545c.255.41.674 1.08.931 1.49.256.409.746 1.191 1.087 1.738.341.546.691 1.082.778 1.191s.44.646.785 1.192.761 1.143.925 1.325c.163.183.396.517.516.742.205.383 2.588 3.847 2.954 4.294.091.112.336.469.543.794 1.054 1.65 4.473 6.313 4.706 6.417.082.036.149.14.149.231 0 .158.502.81 1.241 1.61.191.207.348.42.348.473 0 .054.129.255.288.447.159.193.845 1.11 1.526 2.038.68.929 1.292 1.733 1.359 1.788.067.054.534.635 1.037 1.291.503.655 1.08 1.37 1.283 1.589.203.218.68.799 1.06 1.291.379.491.781.993.892 1.114.11.122.484.569.83.994 3.013 3.697 4.493 5.455 5.306 6.304.34.356 1.066 1.167 1.612 1.803s1.217 1.4 1.49 1.698 1.033 1.153 1.688 1.9c2.229 2.542 3.176 3.521 10.725 11.097 6.604 6.627 9.797 9.712 12.68 12.252.42.37 1.001.896 1.292 1.169s1.154 1.032 1.918 1.687 1.625 1.414 1.913 1.688c.815.775 2.566 2.256 3.03 2.563.23.152.507.376.617.497.109.121.69.621 1.291 1.111.6.489 1.137.941 1.191 1.003.055.063.859.729 1.788 1.481.928.752 1.733 1.42 1.787 1.483.055.064.502.426.993.805.492.378.924.756.96.839.037.082.193.15.348.15s.281.076.281.168.447.472.993.844.993.743.993.825.09.149.199.149.362.157.562.348c.754.721 1.434 1.241 1.624 1.241.109 0 .197.075.197.168 0 .092.447.472.993.844s.993.743.993.825.134.149.298.149.298.081.298.181c0 .099.263.344.585.546.322.201 2.962 2.086 5.868 4.189 2.905 2.103 5.368 3.823 5.472 3.823.105 0 .19.075.19.167s.313.336.696.542c.382.206.695.443.695.528 0 .084.095.153.212.153.116 0 .504.224.862.497s.716.496.796.496c.079 0 .27.112.423.249.519.462 1.178.938 2.473 1.786.71.465 1.321.912 1.357.994.037.082.156.149.266.149.109 0 .571.257 1.026.57.455.314 1.542 1.023 2.416 1.577.874.553 1.681 1.079 1.793 1.167.113.089.515.336.894.549s.779.46.888.549c.38.31 1.706 1.149 1.815 1.149.06 0 .39.201.732.447s.778.536.969.646c.19.109 1.086.637 1.99 1.173s2.046 1.198 2.537 1.47c.492.272.939.549.994.614.054.066.367.253.695.417.327.164.714.409.858.546s.39.248.546.248.284.069.284.154c0 .084.335.328.745.542.409.214 1.325.739 2.035 1.167s1.559.902 1.887 1.054c.328.151 1.043.54 1.589.865.546.326 1.351.775 1.788.999.436.225.973.514 1.193.644 1.814 1.072 4.934 2.747 9.432 5.064 6.96 3.584 8.255 4.208 8.734 4.208.414 0 3.643-1.451 3.977-1.788.055-.055 1.127-.615 2.384-1.244 3.414-1.711 5.03-2.533 5.362-2.729.164-.097.879-.471 1.589-.831s1.336-.702 1.39-.759c.055-.058.323-.212.596-.343s1.122-.593 1.887-1.026c2.013-1.141 2.866-1.614 3.873-2.15.491-.261 1.161-.634 1.489-.827.548-.324 1.503-.859 3.873-2.169.492-.271.939-.547.993-.613.128-.152.539-.403 2.483-1.512 1.978-1.128 2.357-1.358 2.482-1.501.055-.062.234-.178.398-.256.163-.078.478-.25.699-.383.22-.132.846-.5 1.39-.819.544-.318 1.034-.631 1.088-.695.055-.064.368-.249.695-.411.328-.161.873-.496 1.211-.744s.677-.451.753-.451.247-.093.379-.206c.314-.27 5.958-3.965 6.057-3.965.042 0 .448-.255.903-.568.454-.312 1.318-.894 1.919-1.292 1.691-1.122 2.08-1.405 2.152-1.566.036-.082.147-.149.246-.149.098 0 .934-.536 1.856-1.191.922-.656 1.772-1.192 1.889-1.192s.212-.07.212-.156c0-.085.291-.327.646-.536s.735-.457.844-.551c.109-.093 1.226-.903 2.483-1.799 2.943-2.099 3.989-2.861 4.421-3.221.192-.16.393-.291.447-.291.053 0 .262-.157.464-.348s.582-.498.844-.683c1.529-1.075 3.863-2.853 3.92-2.985.036-.085.147-.155.246-.155.176 0 .874-.539 1.608-1.241.2-.191.412-.348.471-.348s.305-.184.546-.41c.241-.225.93-.784 1.531-1.241s1.182-.926 1.291-1.041c.109-.116.556-.469.993-.784.437-.316.839-.637.894-.714.055-.076.635-.539 1.291-1.028.655-.488 1.372-1.056 1.593-1.261.22-.205 1.025-.909 1.787-1.564.763-.656 1.416-1.259 1.453-1.341.036-.082.134-.149.216-.149.153 0 1.423-1.054 2.452-2.036.315-.3.623-.546.684-.546.06 0 .254-.156.431-.348.177-.191.813-.76 1.414-1.265.6-.505 1.461-1.265 1.913-1.688.451-.424 1.568-1.441 2.481-2.26 2.937-2.634 4.089-3.75 11.081-10.735 6.032-6.026 8.09-8.163 10.94-11.36.382-.429.918-1.018 1.191-1.31.274-.292 1.033-1.155 1.687-1.919.655-.764 1.441-1.657 1.747-1.985 1.014-1.085 1.445-1.577 2.436-2.78.541-.656 1.049-1.222 1.131-1.258.082-.037.149-.144.149-.24 0-.095.201-.383.447-.64.877-.917 1.738-1.975 1.738-2.135 0-.09.067-.193.149-.229.082-.037.551-.558 1.043-1.159.491-.601.961-1.122 1.042-1.158.082-.037.149-.161.149-.276 0-.116.12-.309.266-.431.361-.3 2.393-2.852 3.811-4.788.641-.874 1.236-1.619 1.324-1.655.088-.037.16-.186.16-.331 0-.146.068-.295.149-.331.082-.037.686-.782 1.341-1.655.655-.874 1.236-1.634 1.291-1.689.405-.404 1.39-1.804 1.39-1.974 0-.116.076-.21.168-.21s.335-.313.541-.695c.206-.383.444-.696.528-.696s.154-.093.154-.207c0-.113.093-.315.207-.446.547-.633 2.97-4.138 2.97-4.297 0-.099.069-.21.154-.247.132-.057 1.937-2.635 2.825-4.037.164-.258 1.277-2.018 2.472-3.91 1.196-1.892 2.38-3.716 2.632-4.054s.458-.718.458-.844.073-.23.163-.23.361-.38.603-.844.525-.978.629-1.142.86-1.46 1.681-2.88 1.584-2.716 1.696-2.879c.112-.164.257-.455.321-.646s.196-.348.292-.348c.097 0 .176-.127.176-.283s.111-.402.248-.546c.136-.145.434-.62.662-1.057.979-1.88 2.364-4.422 2.759-5.065.234-.382.552-1.008.705-1.39s.354-.785.447-.894c.387-.453 6.228-12.218 7.667-15.442.232-.519.589-1.323.793-1.787.205-.465.684-1.515 1.065-2.334s.83-1.802.999-2.185c.168-.382.531-1.189.807-1.794.276-.604.563-1.342.637-1.64.075-.298.216-.591.313-.651s.177-.243.177-.407c0-.165.211-.763.469-1.329.258-.567.583-1.343.722-1.726.14-.382.456-1.142.705-1.688.248-.546.603-1.395.789-1.887.185-.491.453-1.162.594-1.489.141-.328.396-.998.567-1.49.509-1.464 2.618-7.279 3.385-9.335.382-1.024.7-1.962 1.044-3.078.168-.546.425-1.306.571-1.688.146-.383.372-1.053.502-1.49s.353-1.107.495-1.489c.142-.383.496-1.5.787-2.483s.599-2.011.685-2.284c.087-.273.313-1.033.504-1.688.191-.656.436-1.415.544-1.688.109-.273.363-1.122.566-1.887s.592-2.195.865-3.178c.272-.983.681-2.502.908-3.376s.537-2.036.688-2.582c.152-.546.376-1.395.498-1.887.123-.492.346-1.341.497-1.887.15-.546.505-2.021.789-3.277s.644-2.775.799-3.376c.285-1.099 1.116-4.921 1.512-6.952.117-.6.333-1.628.481-2.284.148-.655.372-1.772.497-2.482.124-.71.35-1.872.502-2.582.151-.71.375-1.961.497-2.781.122-.819.345-2.115.495-2.879.535-2.734.852-4.596 1.083-6.356.129-.983.351-2.458.495-3.277.143-.819.36-2.294.482-3.277s.351-2.771.509-3.972c.524-3.989 1.167-9.822 1.48-13.406.109-1.257.299-3.312.422-4.568.266-2.72.506-6.377.782-11.917.452-9.072.577-14.277.578-24.032.001-9.632-.093-13.314-.58-22.641-.112-2.13-.285-5.482-.385-7.448-.101-1.966-.274-4.335-.386-5.263-.112-.929-.299-2.895-.417-4.37-.325-4.08-1.049-11.038-1.489-14.3-.154-1.147-.38-3.024-.502-4.17-.121-1.147-.346-2.801-.498-3.675-.153-.874-.375-2.304-.494-3.178-.12-.873-.345-2.348-.502-3.277-.358-2.125-.794-4.825-1.089-6.752-.125-.82-.348-2.071-.495-2.781s-.368-1.872-.492-2.582c-.123-.71-.346-1.872-.495-2.582s-.376-1.916-.503-2.681-.347-1.882-.488-2.483c-.141-.6-.363-1.628-.493-2.284-.226-1.136-.446-2.067-1.094-4.617-.16-.628-.39-1.634-.512-2.235-.122-.6-.304-1.365-.404-1.698-.1-.334-.272-1.026-.382-1.539-.934-4.362-.247-3.652-6.555-6.776-1.256-.622-2.418-1.214-2.582-1.316-.164-.101-.611-.318-.993-.483-.382-.164-.829-.388-.993-.496-.164-.109-.611-.333-.993-.497s-.829-.388-.993-.496c-.164-.109-.566-.322-.894-.474-.542-.252-3.128-1.482-6.753-3.212-1.465-.7-3.7-1.731-5.362-2.475-1.301-.582-2.925-1.314-4.226-1.907-.577-.263-1.096-.478-1.154-.478-.059 0-.615-.23-1.236-.512-1.348-.612-1.107-.511-5.201-2.182-1.803-.736-3.741-1.548-4.308-1.805-.567-.256-1.165-.466-1.329-.466s-.345-.076-.403-.169c-.057-.093-.532-.325-1.054-.515-.523-.191-1.218-.461-1.546-.6s-1.266-.495-2.085-.79c-.82-.295-1.71-.626-1.978-.735-.269-.11-1.028-.382-1.688-.606s-1.285-.486-1.389-.582c-.104-.095-.312-.174-.463-.174-.286 0-2.673-.878-3.268-1.202-.19-.103-.503-.191-.695-.194-.193-.004-.524-.138-.736-.298-.212-.161-.587-.292-.832-.292-.246 0-.495-.076-.552-.17-.058-.093-1.024-.463-2.147-.822-1.123-.36-2.533-.827-3.134-1.038-.601-.212-1.361-.456-1.688-.543-.328-.087-.998-.311-1.49-.497-.492-.185-1.206-.408-1.589-.494-.382-.086-1.097-.309-1.589-.495-.491-.185-1.162-.413-1.489-.506-.328-.093-1.088-.342-1.688-.552-.601-.21-1.897-.632-2.88-.937-.983-.306-2.145-.668-2.582-.805s-1.197-.359-1.688-.492c-.492-.133-1.162-.328-1.49-.434-.328-.105-1.355-.397-2.284-.648-2.601-.704-3.972-1.08-5.164-1.416-.601-.169-1.539-.433-2.085-.585-1.027-.288-3.484-.91-5.561-1.409-.656-.158-1.684-.414-2.284-.57-.601-.155-1.584-.387-2.185-.515-.601-.127-1.495-.344-1.986-.481-.492-.137-1.43-.356-2.086-.485-.655-.129-1.683-.355-2.284-.501-1.133-.275-3.542-.794-5.263-1.134-.546-.108-1.484-.315-2.085-.461-.601-.145-1.718-.366-2.483-.49-.764-.124-1.971-.346-2.681-.493-.71-.148-1.917-.372-2.681-.499-.765-.127-2.016-.355-2.781-.507-.764-.151-2.06-.375-2.88-.496-1.412-.209-2.705-.417-6.703-1.077-.955-.158-2.408-.376-3.227-.485s-2.517-.335-3.774-.503c-4.467-.596-10.063-1.243-13.009-1.503-1.31-.115-3.187-.306-4.17-.424-.983-.117-3.039-.289-4.568-.382-4.598-.278-9.353-.572-12.612-.779-2.732-.173-16.142-.229-18.471-.077m22.244 5.526c6.465.384 14.229 1.01 18.57 1.498.984.11 2.637.295 3.675.41 3.443.381 12.307 1.562 14.796 1.97.656.107 2.086.336 3.178.508 31.933 5.035 66.722 15.241 97.915 28.726 10.68 4.617 31.063 14.475 31.454 15.212.19.357 1.589 5.843 2.495 9.776 4.105 17.838 7.118 38.15 8.747 58.987 2.102 26.866 1.603 55.9-1.397 81.231-4.494 37.966-14.06 73.079-28.542 104.767-2.097 4.589-2.376 5.171-5.134 10.685-17.49 34.977-40.537 65.231-70.682 92.784-23.437 21.422-54.131 42.163-85.945 58.076-2.949 1.475-2.429 1.484-5.526-.094-12.801-6.52-26.467-14.191-34.646-19.449-.71-.456-2.051-1.309-2.979-1.896-37.197-23.497-70.603-54.905-94.642-88.981-26.563-37.653-45.288-82.677-53.809-129.377-.179-.984-.407-2.19-.506-2.682-.099-.491-.41-2.279-.692-3.972-.281-1.693-.596-3.57-.7-4.171-.559-3.242-2.014-14.356-2.56-19.563-.513-4.885-.632-6.108-.821-8.441-2.087-25.811-1.844-53.249.694-78.45 1.53-15.184 3.345-27.37 6.184-41.51 1.194-5.951 3.347-15.17 4.059-17.386.194-.605 19.167-10.419 20.141-10.419.034 0 .988-.435 2.121-.967 8.851-4.156 22.74-9.872 32.547-13.394 5.349-1.921 6.662-2.376 11.243-3.891 16.644-5.505 32.356-9.666 48.836-12.932 2.185-.433 4.419-.878 4.965-.988s1.753-.33 2.681-.489c.929-.158 3.253-.557 5.164-.886 13.231-2.277 29.962-4.091 44.092-4.782 2.457-.12 5.005-.249 5.66-.287 2.497-.145 14.514.09 19.364.377m-28.335 43.194c-2.203.06-4.055.159-4.116.22-.113.114.266 18.504.384 18.629.037.039 3.201.005 7.031-.076l6.963-.146v-1.595-1.594l-4.568.133-4.568.133v-2.485-2.484h3.873 3.873v-1.644-1.644l-3.972.078-3.973.079v-2.208-2.208l1.043-.025c.574-.014 2.323-.081 3.888-.149l2.846-.124.58-1.49c.318-.819.58-1.512.58-1.539.001-.066-4.869.003-9.864.139m18.195 1.152c-.007.737-.127 4.916-.268 9.285s-.218 7.989-.171 8.044c.047.054 1.195.129 2.552.165l2.466.066v-2.072c0-1.139.058-2.755.129-3.591l.128-1.52h1.045c1.271 0 1.744.465 4.73 4.647l1.9 2.661 2.669.142c1.467.079 2.769.11 2.894.068.271-.09-4.23-6.192-5.651-7.661l-1.003-1.037 1.222-.601c2.413-1.189 3.523-3.039 3.089-5.152-.731-3.563-4.103-4.776-13.287-4.783l-2.433-.002zm-31.766-.616c-.383.036-2.706.206-5.164.376-2.458.171-6.154.44-8.214.598-2.059.158-3.85.287-3.978.287-.248 0-.205 2.758.047 3.008.071.07 1.648.017 3.505-.118s3.432-.193 3.5-.128c.067.065.227 1.638.355 3.495s.315 4.449.415 5.759c.1 1.311.241 3.261.314 4.333l.133 1.95 1.266-.113c.697-.061 1.85-.164 2.562-.228l1.296-.115-.107-.927c-.145-1.257-.783-10.492-.949-13.738l-.046-.894 3.079-.255c3.74-.31 3.493-.227 3.737-1.27.109-.472.29-1.148.402-1.503l.202-.646-.83.032c-.456.017-1.143.061-1.525.097m68.846 1.808c-.387 2.345-.489 2.257 3.051 2.626 4.387.457 3.961.056 3.575 3.368-.282 2.417-1.164 10.883-1.233 11.831l-.057.794.992.119c.546.066 1.668.18 2.493.253l1.5.134.248-2.338c.137-1.286.381-3.59.542-5.119.482-4.559.884-7.918.955-7.99.066-.066 3.095.196 5.319.46l1.126.133.724-1.436c.397-.79.692-1.467.654-1.505-.08-.08-2.443-.362-6.61-.788-3.008-.308-4.329-.449-9.276-.99-3.954-.432-3.856-.443-4.003.448m-100.227.85c-8.905 1.051-10.241 8.558-1.936 10.884 4.046 1.132 4.522 1.303 5.198 1.859 3.019 2.489-3.387 4.712-8.227 2.855-.271-.104-1.988 2.764-1.762 2.943 2.34 1.854 11.51.705 14.277-1.789 3.847-3.468 1.869-7.085-4.914-8.984-3.907-1.093-4.82-1.606-4.82-2.706 0-1.78 3.436-2.614 7.365-1.788.788.166 1.458.276 1.49.245.121-.122-.324-3.018-.49-3.184-.438-.438-3.773-.619-6.181-.335m71.947.231c3.89 1.165 1.979 5.324-2.446 5.324-1.676 0-1.59.174-1.441-2.952l.125-2.609h1.485c.817 0 1.842.106 2.277.237m54.965 1.315c0 .103-.181 1.383-.401 2.843-.378 2.501-.83 5.553-1.867 12.629l-.443 3.021.909.119c.499.065 1.337.202 1.862.305 1.691.331 2.323.256 2.323-.275 0-.254.135-1.304.299-2.334s.383-2.453.487-3.163c.394-2.693.819-5.578 1.313-8.913.592-3.993.74-3.666-1.801-3.983-1.092-.136-2.142-.291-2.333-.343-.192-.052-.348-.01-.348.094m-145.581 1.233c-1.147.2-3.694.648-5.66.995s-4.022.691-4.568.764c-1.195.159-1.175-.311-.221 5.188.388 2.239 1.063 6.161 1.5 8.716s.837 4.687.888 4.738c.051.052 1.372-.132 2.935-.408s4.585-.791 6.715-1.144c2.13-.354 3.942-.703 4.027-.776.287-.249-.302-2.984-.641-2.98-.169.003-1.827.273-3.684.601s-3.739.648-4.182.713l-.806.116-.339-1.958c-.507-2.926-.56-2.767 1.007-3.042.738-.13 2.011-.36 2.831-.511.819-.151 1.923-.335 2.452-.408.955-.132.962-.139.834-.753-.071-.341-.183-1.055-.249-1.587l-.119-.966-.814.12c-.447.066-2.065.344-3.594.617-1.529.274-2.918.498-3.086.499-.266.001-1.145-4.076-.927-4.294.068-.068 4.412-.844 6.094-1.089 1.534-.224 1.533-.223 1.791-1.475.111-.542.257-1.231.324-1.532.141-.641.296-.632-2.508-.144m165.74 2.696c-11.134 1.621-12.387 13.881-1.836 17.961 3.077 1.19 7.22 1.706 10.932 1.363 2.69-.249 2.389.057 3.007-3.057 1.155-5.827 1.359-5.068-1.517-5.637-1.168-.232-2.202-.421-2.298-.421-.095 0-.43 1.385-.744 3.078l-.571 3.079h-1.415c-6.412 0-10.821-5.03-8.562-9.768 1.91-4.008 8.471-4.658 14.402-1.427 1.447.788 1.503.766 1.788-.722.115-.601.264-1.281.33-1.512.393-1.367-9.513-3.52-13.516-2.937m-189.076 1.591c-9.297 1.253-14.803 6.2-13.954 12.536 1.043 7.786 12.413 10.063 20.849 4.174 1.276-.89 1.277-.851-.022-2.311l-.775-.872-.567.4c-5.671 4.006-12.585 2.914-14.078-2.223-1.432-4.926 4.729-9.497 11.476-8.515.945.138 1.341.132 1.341-.018 0-.42-.572-2.937-.696-3.06-.147-.148-2.711-.228-3.574-.111m210.427 11.474c-1.224 4.928-2.239 9.045-2.255 9.147-.023.142 13.598 3.737 13.697 3.615.13-.162.692-2.954.611-3.035-.061-.061-1.999-.584-4.308-1.163-2.308-.579-4.231-1.086-4.271-1.127-.193-.193 1.041-4.438 1.305-4.488.157-.03 1.846.345 3.753.835 1.907.489 3.5.857 3.54.817.096-.095.832-2.96.776-3.016-.024-.024-1.696-.464-3.715-.977-2.019-.514-3.698-.956-3.729-.982-.245-.205 1.042-4.268 1.324-4.184 1.02.304 6.805 1.702 7.042 1.702.263 0 1.806-1.857 2.031-2.444.085-.22-6.777-2.084-12.951-3.517l-.626-.145zm-236.147-5.243c-.71.201-1.672.466-2.137.59-.785.208-.837.263-.719.762.069.296.562 2.147 1.093 4.113.532 1.967 1.1 4.067 1.262 4.668.162.6.47 1.718.683 2.482.48 1.719 1.412 5.185 1.58 5.874l.124.512 2.339-.632c1.286-.348 2.377-.672 2.425-.719.047-.048-.48-2.183-1.172-4.745-.692-2.563-1.778-6.603-2.414-8.979-.887-3.315-1.228-4.316-1.465-4.306-.17.008-.889.179-1.599.38m259.634 3.33c-.224.738-1.006 3.307-1.737 5.71-2.109 6.933-3.279 10.893-3.228 10.929.23.165 4.73 1.337 4.814 1.253.06-.06.546-1.574 1.08-3.365.938-3.146.987-3.254 1.48-3.219 1.55.112 2.079.904 3.895 5.838l1.211 3.292 1.828.532c1.005.292 2.248.66 2.762.817l.936.285-.665-1.825c-1.183-3.247-2.311-5.968-2.993-7.217l-.666-1.221.929-.134c6.076-.877 6.444-7.036.589-9.888-1.242-.606-8.995-3.127-9.614-3.127-.118 0-.397.603-.621 1.34m-274.034.745c-1.857.584-4.761 1.485-6.454 2.003-3.561 1.089-3.426 1.014-3.195 1.779.162.536.83 2.693 3.782 12.206.559 1.803 1.113 3.657 1.231 4.121.264 1.04-.027 1.056 4.14-.233 1.911-.591 4.816-1.488 6.455-1.993 1.638-.506 3.032-.938 3.098-.96.245-.084-.711-2.921-.984-2.921-.24 0-7.377 2.157-8.177 2.471-.287.113-1.584-3.421-1.584-4.318 0-.288 1.137-.698 5.894-2.125l1.425-.427-.301-1.012c-.645-2.171-.528-2.067-1.854-1.657-3.522 1.088-6.237 1.889-6.274 1.851-.11-.118-1.304-4.151-1.243-4.2.038-.031 1.454-.476 3.148-.991 4.234-1.286 4.144-1.244 4.255-1.977.243-1.604.312-2.708.171-2.693-.086.009-1.676.493-3.533 1.076m280.057 2.911c2.607.757 3.884 2.346 3.127 3.89-.795 1.621-2.42 2.02-5.045 1.238l-1.349-.401.274-.84c.151-.462.508-1.622.793-2.577.286-.956.566-1.738.623-1.738.058 0 .767.192 1.577.428m20.474 4.609c-3.013.853-4.355 3.657-3.038 6.349.482.986 2.144 2.778 4.293 4.628 1.882 1.621 2.385 2.309 2.385 3.262 0 2.384-4.776 1.707-7.926-1.124-1.146-1.031-1.152-1.031-2.707.143-1.314.992-1.317.981.42 2.317 5.614 4.319 13.239 4.815 15.201.987 1.286-2.506.355-4.53-3.742-8.134-2.468-2.17-3.031-2.89-3.033-3.871-.002-2.228 4.336-1.42 7.766 1.446.975.814.914.852 1.582-.982l.527-1.443-1.015-.753c-3.143-2.332-7.962-3.603-10.713-2.825m-327.727 1.533c-1.194.431-2.199.812-2.233.847-.034.034.258.949.651 2.032.392 1.084.786 2.194.874 2.467.089.273.533 1.525.987 2.781 1.274 3.529 1.677 4.656 2.694 7.547.519 1.475.975 2.717 1.012 2.762.081.095 1.14-.248 4.244-1.374 1.256-.456 2.508-.902 2.781-.991s1.524-.536 2.78-.995c1.256-.458 2.441-.879 2.632-.935s.347-.178.347-.27c0-.267-.827-2.449-.999-2.638-.138-.151-1.584.313-6.647 2.13l-1.39.499-.236-.534c-.13-.294-.465-1.182-.745-1.974s-.732-2.065-1.006-2.83c-.273-.765-.719-2.016-.993-2.78-.273-.765-.713-1.994-.977-2.731-.265-.738-.679-1.9-.921-2.582-.241-.683-.494-1.236-.561-1.228-.067.007-1.099.366-2.294.797m92.638 48.448c-.819.082-2.919.256-4.667.387-4.073.305-4.086.312-2.085 1.088 6.213 2.413 11.775 7.432 17.07 15.403 7.179 10.808 15.911 17.216 25.58 18.772 1.055.17 1.959.35 2.01.401.365.365-6.24-.231-8.854-.798-5.507-1.197-10.89-3.475-15.449-6.539l-2.185-1.468-2.979 1.504c-16.59 8.376-32.704 22.35-42.65 36.986-16.903 24.875-20.362 53.2-10.284 84.211 1.567 4.823 3.952 10.926 4.324 11.069.421.162.451.005.244-1.25-1.279-7.754-.822-20.082 1.011-27.25.53-2.073.584-2.079 1.094-.12 1.224 4.692 3.21 9.578 5.182 12.746 1.128 1.813 1.124 1.823.549-1.054-.435-2.176-.77-4.105-1.275-7.349-5.875-37.715 7.005-69.787 35.748-89.013 4.068-2.721 12.2-7.014 13.287-7.014.06 0-.611.737-1.492 1.638-13.05 13.344-21.46 30.584-24.68 50.596-.519 3.225-.63 4.048-.914 6.753-.798 7.591-.841 19.786-.096 26.812.938 8.843 1.641 13.541 3.002 20.06.331 1.584.677 3.245.77 3.691.829 4.002 3.357 12.96 5.124 18.156 2.35 6.911 2.99 8.148 2.75 5.312-.542-6.423.049-17.863.909-17.576.112.037.494 1.047.849 2.243 6.524 21.994 25.296 45.941 50.397 64.293 6.478 4.736 7.519 5.19 5.739 2.503-13.528-20.429-22.173-44.82-23.495-66.293-2.744-44.564 25.391-76.309 61.693-69.606.983.182 2.1.386 2.482.455 1.362.243 1.058.926-.535 1.2-33.572 5.773-56.062 52.298-47.023 97.275 1.142 5.681 3.535 13.366 5.552 17.83 12.166 26.922 34.354 43.833 65.293 49.766 6.603 1.267-13.073 1.349-21.102.089-6.829-1.072-14.651-3.321-21.946-6.312-17.572-7.203-32.122-16.757-65.343-42.904-35.536-27.97-51.82-36.525-69.613-36.574-7.287-.02-8.746.28-4.766.98 15.627 2.749 31.778 12.532 64.548 39.099 27.918 22.633 42.299 33.05 55.666 40.321.741.403 1.679.92 2.086 1.149 5.385 3.033 14.705 7.163 21.064 9.334 24.636 8.41 51.437 7.054 56.28-2.848 2.127-4.35-.67-9.697-5.072-9.697-.201 0-.219-.309-.085-1.44.482-4.049-.036-15.788-.959-21.747-.143-.919-.241-.861-2.178 1.291-2.457 2.73-10.091 10.774-10.225 10.774-.234 0-.923-13.124-.985-18.768-.007-.588-.02-.581-1.047.594-2.596 2.972-5.583 5.314-9.083 7.123-3.2 1.653-2.94 1.772-2.642-1.213.857-8.609.997-11.345.645-12.612-.252-.909-.052-.932-1.923.228-3.157 1.958-6.325 3.32-8.983 3.862-1.641.335-1.641.229.014 3.119 5.461 9.534 12.79 17.918 20.982 24.001 2.364 1.756 2.04 1.651-1.043-.337-19.634-12.661-33.483-33.325-37.325-55.697-4.705-27.393 5.037-51.414 22.225-54.803 2.708-.533 8.151-.433 10.468.194 7.373 1.995 11.294 5.75 21.347 20.448 10.578 15.463 18.273 23.178 29.133 29.209 3.945 2.192 2.669 1.754-2.79-.957-8.794-4.367-13.497-7.717-20.46-14.572-2.208-2.174-3.453-3.268-3.513-3.088-.051.154-.289 1.085-.527 2.068-.898 3.696-2.51 7.648-4.415 10.824-.492.819-.866 1.519-.831 1.556.139.149 8.288-2.491 10.874-3.522.85-.339 1.596-.616 1.659-.616.209 0-.154 3.237-.627 5.597-.771 3.847-2.136 8.01-3.983 12.149l-1.05 2.353.732-.136c5.261-.978 15.292-5.595 19.351-8.907.628-.512 1.142-.889 1.142-.837 0 .426-4.643 11.491-6.368 15.175-2.697 5.761-2.754 5.233.509 4.699 9.647-1.577 19.313-6.998 24.698-13.85 1.024-1.303 1.026-1.305 1.769-1.132 2.38.553 7.161.065 9.966-1.017 11.083-4.274 12.156-15.484 3.057-31.931-4.583-8.284-4.877-10.36-1.684-11.875 2.168-1.029 3.017-.582 5.443 2.862 5.105 7.248 11.283 9.775 15.4 6.3 2.479-2.094 1.954-5.934-1.601-11.716-3.281-5.334-8.248-10.16-19.83-19.265-22.295-17.527-21.392-16.571-27.954-29.601-13.478-26.766-29.41-43.008-55.341-56.421-17.204-8.899-33.213-13.576-53.048-15.498-.985-.095-1.038-.134-1.977-1.428-4.867-6.711-14.725-13.435-24.121-16.451-8.165-2.621-19.8-4.128-26.614-3.446m75.671 44.587c7.239.734 14.643 2.435 22.045 5.064 1.584.563 3.036 1.071 3.228 1.13.208.063.347.302.347.596v.491l-1.539-.151c-4.124-.403-12.559-.063-17.742.717-23.678 3.561-40.244 16.771-51.099 40.748-4.403 9.726-7.444 22.432-8.999 37.599-.496 4.839-.497 21.505-.002 26.415 1.259 12.476 3.185 21.487 6.234 29.16 1.615 4.066 1.347 3.997-1.579-.409-4.526-6.813-8.102-13.244-11.129-20.012-20.97-46.888-9.817-97.603 25.379-115.399 10.057-5.085 22.477-7.205 34.856-5.949m29.153 20.764c18.199 1.988 30.636 11.092 45.853 33.562 4.168 6.155 4.821 7.057 6.206 8.572l1.032 1.129-.457.287c-2.599 1.63-10.321.741-14.26-1.643-1.278-.774-1.293-.777-1.472-.347-1.088 2.617-1.633 3.483-3.112 4.948-2.088 2.066-2.373 3.78-1.263 7.588.497 1.704.461 1.773-.856 1.652-2.777-.253-5.02-1.677-8.789-5.58-7.87-8.151-8.981-9.078-12.297-10.264-1.847-.661-1.941-.756-1.686-1.707.097-.358.303-.436 1.381-.523 1.089-.087 1.822-.37 5.197-2.002 5.146-2.49 6.427-2.905 10.173-3.298 2.531-.265 2.175-.748 3.291 4.456.516 2.404.995 4.432 1.065 4.509.206.227 1.779-.574 2.303-1.173 1.158-1.325 1.095-1.475-2.358-5.62-16.6-19.929-32.231-28.225-55.964-29.705-1.652-.103-2.149-.2-2.241-.441-.166-.433-.045-.485 3.762-1.613 8.591-2.546 17.46-3.555 24.492-2.787m-9.363 46.962c.078.205-.759 1.141-2.622 2.93-16.808 16.142-24.539 37.534-23.688 65.545.409 13.46 3.832 29.365 7.93 36.851 1.665 3.041-2.149.109-5.122-3.938-7.012-9.545-11.878-24.502-13.387-41.148-.265-2.927-.134-13.157.198-15.456.119-.819.31-2.16.426-2.979 2.893-20.431 14.915-35.233 33.654-41.435 2.28-.754 2.454-.779 2.611-.37m50.617 20.563c6.665 3.297 10.46 7.187 19.855 20.348 9.859 13.811 15.601 19.149 24.802 23.059 2.384 1.013 2.251 1.189-.754 1.006-13.109-.803-23.88-10.445-40.971-36.677-3.981-6.11-5.497-8.236-6.131-8.599-.152-.088-.277-.254-.277-.37 0-.352.958-.013 3.476 1.233m-12.761 3.386c5.099 2.553 9.885 7.061 20.114 18.948 7.12 8.274 11.122 12.451 15.189 15.856 6.044 5.06 12.484 8.227 18.256 8.976 1.399.182 1.029.389-1.397.783-13.802 2.238-29.873-9.877-48.865-36.836-4.613-6.548-5.755-8.136-5.934-8.246-.105-.065-.284-.292-.398-.504-.244-.457.739-.126 3.035 1.023m-65.592 165.807c-2.914.886-3.887 3.786-1.969 5.866l.78.846-.811.537c-2.446 1.618-1.886 5.386.943 6.35 3.861 1.315 7.608-.916 7.114-4.237-.145-.98-1.535-2.596-2.232-2.596-.233 0-.106-.193.405-.614 3.35-2.761.11-7.472-4.23-6.152m12.509.107c-2.733.879-3.546 4.497-1.372 6.104l.548.406-.827.626c-3.409 2.58-1.204 6.866 3.413 6.632 4.456-.226 6.472-4.558 3.113-6.689l-.913-.579.554-.432c3.585-2.801.059-7.539-4.516-6.068m-9.482 1.876c1.645 1.47.087 4.448-2 3.823-2.957-.886-2.712-4.403.306-4.403.874 0 1.151.095 1.694.58m12.848.031c.91.91.87 2.08-.107 3.162-.972 1.076-2.349.935-3.52-.36-1.86-2.057 1.655-4.773 3.627-2.802m9.449 1.87c-3.656 1.281-3.94 7.948-.41 9.608 3.22 1.513 6.468-.859 6.468-4.724 0-3.763-2.806-6.024-6.058-4.884m-37.394.695c-1.621.774-1.917 1.204-1.336 1.942.023.029.613-.126 1.312-.345s1.338-.399 1.42-.401c.082-.001.149 1.785.149 3.97v3.972h.894.893v-4.965-4.965l-.844.003c-.568.003-1.382.261-2.488.789m40.321.99c1.56 1.226 1.59 5.115.049 6.327-2.133 1.678-4.554-1.06-3.848-4.353.444-2.067 2.393-3.08 3.799-1.974m-26.432 2.098c3.894 1.327 2.41 5.745-1.569 4.673-2.222-.598-2.46-3.326-.4-4.582.779-.475.835-.478 1.969-.091m12.948.013c2.55.869 3.027 3.382.843 4.439-3.417 1.655-6.025-2.095-2.997-4.309.719-.526.951-.54 2.154-.13" fill="#fbfbfb"/><path d="m302.212 21.885c6.016 8.926 7.667 28.403 4.146 48.919-5.253 30.605-23.621 71.487-49.182 109.465l-.957 1.422 2.657 2.505c7.783 7.338 15.618 17.36 20.975 26.827 1.745 3.084 3.533 6.46 5.784 10.923 2.88 5.711 4.034 7.822 5.048 9.234 1.493 2.078 8.896 8.315 22.945 19.331 13.595 10.661 19.664 17.524 21.709 24.55 1.009 3.469-1.216 7.163-4.314 7.163h-.482l-.112 3.426c-.264 8.092-3.202 14.084-8.271 16.868l-1.2.66-.002 1.21c-.015 7.318-9.001 13.193-18.573 12.143l-1.39-.153-1.092 1.414c-5.248 6.795-15.326 12.27-25.355 13.777-2.277.342-2.187.38-1.686-.716.634-1.383 1.894-4.081 2.909-6.225.903-1.907 1.877-4.237 4.193-10.024 1.284-3.207 1.286-3.226.259-2.299-1.751 1.583-6.723 4.471-9.913 5.759-4.168 1.683-10.328 3.654-10.328 3.304 0-.085.127-.415.283-.732 2.844-5.806 5.278-14.051 5.278-17.877 0-1.481.127-1.437-1.891-.657-2.62 1.012-10.635 3.619-10.747 3.495-.018-.02.323-.617.757-1.327 2.095-3.419 4.192-8.64 4.932-12.271.312-1.536.044-1.661 3.318 1.555 7.311 7.185 12.076 10.616 20.57 14.809 1.88.928 3.584 1.779 3.786 1.89.201.111.404.164.45.118s-.433-.359-1.064-.695c-10.777-5.744-18.579-13.722-30.441-31.126-10.419-15.287-15.535-19.078-25.717-19.06-13.753.025-23.846 11.009-27.096 29.487-5.284 30.04 9.407 62.504 36.469 80.588 3.011 2.012 2.966 1.872-.207-.648-7.173-5.696-13.923-13.692-18.861-22.343-1.767-3.096-1.728-2.898-.595-3.053 2.505-.343 5.81-1.685 9.264-3.762 1.49-.896 2.008-1.12 2.185-.942.336.338.254 6.436-.132 9.842-.174 1.53-.375 3.475-.447 4.323l-.131 1.542 1.217-.576c4.459-2.109 8.648-5.261 10.88-8.187 1-1.311.986-1.378 1.135 5.381.128 5.756.419 10.976.686 12.279l.134.661 2.384-2.448c2.109-2.166 5.377-5.654 8.607-9.187 1.259-1.377 1.325-1.33 1.508 1.056.072.941.213 2.426.312 3.299.801 7.026.96 12.998.466 17.428-.12 1.073-.102 1.142.295 1.142 2.901 0 5.681 3.109 5.684 6.356.005 5.573-5.788 9.601-16.18 11.249-2.876.455-14.451.526-17.975.109-24.43-2.892-45.939-12.882-75.41-35.026-2.501-1.879-3.135-2.273-3.215-1.998-1.761 6.121-2.331 23.904-1.106 34.504 3.673 31.803 22.637 62.554 49.47 80.222l1.118.737 3.982-1.993c53.254-26.652 97.959-63.72 129.299-107.209 22.379-31.055 38.147-64.319 49.17-103.733 1.79-6.4 4.599-18.494 5.974-25.72.395-2.076.8-4.176.901-4.667.619-3.022 2.124-12.791 3.059-19.861 6.007-45.41 3.466-99.658-6.763-144.39-1.791-7.832-2.45-10.095-3.03-10.394-27.26-14.042-52.379-24.279-78.275-31.901-1.147-.338-2.239-.662-2.427-.72-.247-.077-.144.187.369.948m15.575 41.389c3.763.938 6.864 1.728 6.892 1.756s-.411.668-.976 1.423c-.564.755-1.037 1.39-1.051 1.412-.014.023-1.629-.357-3.59-.844-1.961-.486-3.667-.884-3.792-.884-.243 0-1.307 3.927-1.096 4.051.069.041 1.658.454 3.532.917 1.873.463 3.507.905 3.632.982.256.159-.348 3.186-.636 3.186-.089 0-1.781-.407-3.761-.904-2.432-.61-3.641-.834-3.731-.689-.219.355-1.074 4.163-.96 4.277.059.058 1.705.506 3.66.994 1.955.489 3.88.979 4.278 1.09l.724.201-.394 1.537c-.216.846-.417 1.562-.446 1.591-.052.053-13.666-3.332-13.77-3.423-.085-.076 4.487-18.378 4.591-18.378.03 0 3.132.767 6.894 1.705m19.238 5.234c4.573 1.39 6.369 2.207 7.815 3.552 3.351 3.119 1.67 7.758-3.012 8.312l-.973.115.535.845c.295.464 1.143 2.396 1.886 4.294.742 1.898 1.489 3.787 1.66 4.197.17.411.264.793.208.849-.09.09-3.804-.964-5.101-1.448-.388-.144-.677-.728-1.607-3.24-1.619-4.375-2.105-5.335-2.859-5.643-1.535-.627-1.337-.863-2.503 2.977-.856 2.818-1.118 3.465-1.376 3.391-2.748-.791-4.588-1.405-4.588-1.531 0-.087.44-1.613.977-3.393.754-2.495 3.593-11.924 4.313-14.322.06-.199.212-.323.339-.275.127.047 2.055.641 4.286 1.32m-1.241 5.849c-.401 1.354-.729 2.512-.729 2.574 0 .195 2.692.924 3.397.92 2.565-.017 3.859-2.471 2.186-4.145-.64-.64-3.258-1.809-4.051-1.809-.041 0-.402 1.107-.803 2.46m28.665 2.901c2.24.759 5.423 2.474 5.838 3.145.069.112-.067.724-.303 1.36-.235.636-.503 1.359-.594 1.606-.162.438-.198.423-1.412-.559-4.973-4.027-10.305-2.969-5.859 1.163 4.728 4.393 5.502 5.395 5.667 7.336.514 6.062-10.072 6.458-16.523.617l-.957-.866 1.438-1.04 1.439-1.039.761.687c2.706 2.444 6.359 3.603 7.797 2.473 1.171-.921.614-1.961-2.543-4.751-3.452-3.049-4.485-4.714-4.181-6.738.512-3.413 4.811-4.96 9.432-3.394m-169.99 351.771c2.648.903 3.36 3.92 1.38 5.842l-.784.76.787.47c2.501 1.491 1.992 5.14-.895 6.417-4.091 1.809-8.497-1.241-6.992-4.841.265-.636 1.554-1.927 1.923-1.927.105 0-.162-.364-.593-.808-2.92-3.009.898-7.372 5.174-5.913m13.187.145c2.404 1.109 2.861 4.19.872 5.872-.469.396-.589.597-.397.662 1.452.492 2.509 2.77 2.01 4.332-1.125 3.523-7.568 4.08-9.273.802-.759-1.46-.183-3.752 1.167-4.645l.772-.511-.58-.614c-3.14-3.321 1.08-7.906 5.429-5.898m-16.286 1.444c-1.851 1.018-1.227 3.467 1.058 4.152 2.08.623 3.438-2.851 1.562-3.995-.696-.424-1.992-.502-2.62-.157m12.696.144c-1.78 1.085-1.078 3.389 1.227 4.026.843.232 1.472-.097 2.074-1.085 1.278-2.096-1.146-4.256-3.301-2.941m-21.534 6.985v5.174l-.943-.06-.943-.061-.054-3.997-.054-3.997-1.297.395c-1.451.444-1.426.45-1.591-.378-.135-.675 2.814-2.238 4.237-2.247l.645-.004zm37.637-4.8c3.18 1.468 3.507 7.155.531 9.247-3.179 2.234-7.05-.212-7.057-4.46-.006-3.927 3.236-6.305 6.526-4.787m-2.979 1.402c-1.983.811-1.98 5.825.004 6.729 2.048.933 3.637-.778 3.429-3.691-.182-2.545-1.592-3.792-3.433-3.038m-25.956 2.412c-2.663 1.366-1.716 4.578 1.349 4.578 3.484 0 3.775-3.659.369-4.654-.922-.27-1.055-.264-1.718.076m12.965-.067c-2.72 1.317-1.878 4.663 1.173 4.663 1.666 0 2.781-.902 2.781-2.248 0-1.635-2.461-3.138-3.954-2.415" fill="#ab1c2c"/><path d="m195.233 5.372c-14.796.555-31.76 2.097-43.594 3.961-.656.104-2.667.416-4.469.695-3.5.54-6.529 1.06-10.427 1.789-14.005 2.617-27.962 5.985-41.51 10.016-7.265 2.161-18.612 5.916-24.429 8.082-.437.163-1.018.37-1.291.461-1.858.615-11.853 4.579-16.981 6.736-8.056 3.387-10.522 4.478-17.477 7.731-2.368 1.107-17.465 8.634-17.909 8.929-.31.206-1.956 6.645-3.516 13.755-.872 3.975-1.601 7.711-2.808 14.4-.663 3.672-1.971 12.13-2.289 14.796-.111.928-.242 1.822-.291 1.986s-.18 1.102-.291 2.085c-.111.984-.339 2.95-.507 4.37-3.323 28.12-3.891 56.949-1.674 85.005.32 4.049 1.016 10.979 1.487 14.796.155 1.256.379 3.089.498 4.072.733 6.068 3.055 20.385 3.962 24.429.099.437.412 1.956.696 3.376 4.543 22.655 12.274 47.006 21.78 68.594 1.2 2.723 1.465 3.305 3.502 7.672 1.122 2.403 5.917 11.948 6.836 13.605.273.492 1.283 2.324 2.246 4.072 7.156 12.997 16.047 26.592 25.196 38.53 2.292 2.99 7.365 9.367 7.663 9.632.061.055.511.591 1 1.192 7.18 8.83 21.463 23.609 31.678 32.779 20.06 18.008 42.745 34.103 67.924 48.192 1.558.872 3.398 1.877 7.845 4.285 1.963 1.063 10.834 5.531 10.46 5.268-16.593-11.652-29.117-25.844-37.997-43.056-10.457-20.268-14.137-43.634-10.692-67.89.274-1.931.537-3.616.584-3.746.047-.129-.816-.934-1.918-1.787-4.755-3.682-6.52-5.083-14.391-11.422-4.571-3.681-9.561-7.704-11.09-8.939-29.476-23.816-46.028-33.474-61.569-35.925-2.283-.36-2.207-.482.535-.849 10.368-1.387 23.147 1.798 36.078 8.994.945.526 2.165 1.205 2.711 1.51 3.758 2.094 10.762 6.68 16.485 10.794 2.959 2.126 11.828 8.769 12.346 9.246.127.117.874.704 1.66 1.305s2.157 1.66 3.046 2.355c.89.695 1.921 1.499 2.291 1.787.371.289 1.579 1.24 2.685 2.114 4.535 3.583 6.006 4.731 10.941 8.538 2.84 2.191 6.237 4.781 7.547 5.754 1.311.974 3.074 2.286 3.918 2.917 2.441 1.824 9.154 6.503 11.971 8.345 5.083 3.322 5.974 3.893 7.118 4.557.638.37 1.398.817 1.689.992 4.662 2.815 11.636 6.485 15.821 8.327 1.529.673 3.048 1.342 3.376 1.487 12.558 5.545 27.758 8.326 40.809 7.466 4.088-.269 4.441-.433 1.951-.906-29.476-5.601-52.944-23.577-64.058-49.066-.238-.546-.617-1.411-.841-1.922-1.865-4.239-4.178-12.114-5.239-17.84-1.391-7.498-1.612-10.09-1.612-18.868 0-7.53.085-9.023.799-14.101 4.145-29.45 19.496-52.771 39.998-60.761 3.004-1.17 7.554-2.396 8.898-2.397.315 0 .447-.117.447-.397 0-.218-.067-.398-.149-.399s-1.043-.185-2.135-.41c-43.471-8.923-73.15 36.985-58.879 91.077.346 1.311.699 2.652.785 2.979.484 1.848 2.591 8.309 3.271 10.03.151.382.695 1.768 1.209 3.079.514 1.31 1.114 2.785 1.334 3.277.22.491.567 1.283.771 1.76 2.751 6.41 6.916 14.222 11.4 21.378 3.313 5.287 2.688 5.188-5.373-.857-25.723-19.292-43.897-42.799-50.055-64.747-.423-1.509-.572-1.438-.854.404-.611 4.006-.764 10.899-.372 16.739.176 2.614-3.169-5.793-5.122-12.876-.156-.565-.518-1.876-.804-2.914-1.7-6.154-3.026-12.061-4.057-18.073-.866-5.05-1.232-7.64-1.584-11.222-.118-1.201-.314-3.078-.436-4.17-.397-3.571-.455-18.246-.089-22.393 2.224-25.173 9.947-43.571 25.176-59.979l1.98-2.134-1.653.705c-23.949 10.216-41.645 33.067-46.821 60.464-2.028 10.73-1.759 26.265.68 39.325.174.928.399 2.135.501 2.681.101.546.271 1.348.377 1.782.191.784.12 1.171-.144.785-.076-.112-.423-.608-.77-1.103-1.699-2.42-4.125-8.311-5.632-13.679l-.251-.893-.272.993c-1.936 7.081-2.382 18.101-1.134 28.053.12.957.097 1.043-.27 1.043-.644 0-3.326-6.89-5.413-13.903-.243-.819-.563-1.891-.709-2.383-6.343-21.276-5.207-43.562 3.245-63.654 8.682-20.643 28.697-41.037 51.683-52.664 2.886-1.46 2.691-1.424 3.717-.681 6.53 4.73 16.507 8.258 22.996 8.13.656-.013.968-.056.695-.096-9.226-1.347-19.079-8.317-25.186-17.816-5.305-8.252-11.589-14.051-17.813-16.438-2.049-.786-2.156-.914-.866-1.047 13.269-1.367 24.02-.514 33.909 2.689 10.274 3.328 18.671 8.975 24.554 16.511l1.192 1.526.993.005c.881.004 4.228.385 8.639.984 11.051 1.501 25.049 5.575 35.849 10.434 13.271 5.971 24.23 12.71 33.534 20.624.857.728 1.617 1.321 1.688 1.318.173-.008.374-.3 2.941-4.264 25.428-39.27 41.223-74.505 46.857-104.531 3.684-19.636 2.752-37.712-2.496-48.398-1.685-3.433-1.584-3.344-4.867-4.258-7.192-2.001-14.743-3.903-20.656-5.205-.983-.216-2.323-.513-2.979-.659-13.016-2.904-28.034-5.322-43.098-6.94-7.991-.858-18.328-1.581-25.819-1.806-1.967-.059-4.29-.137-5.164-.175s-3.421.001-5.661.085m-.033 43.244c-.036.085-.321.837-.632 1.67-.686 1.836-.431 1.744-4.846 1.747l-3.426.003v2.167 2.168l3.845-.112 3.844-.111.143 1.636c.175 2.003.702 1.746-3.939 1.915l-3.946.143.126 1.49c.069.819.126 1.841.126 2.273v.784l4.518-.069 4.518-.07.058 1.62.057 1.62-1.646.111c-.906.061-4.118.158-7.14.215l-5.493.104-.122-1.835c-.189-2.816-.442-16.909-.307-17.081.066-.083 2.617-.225 5.668-.316 8.006-.238 8.668-.244 8.594-.072m13.851.034c4.189.188 5.789.467 7.421 1.294 4.039 2.047 3.739 6.91-.545 8.846-.956.432-.998.481-.639.733.837.586 6.703 8.324 6.402 8.445-.078.031-1.431.012-3.007-.043l-2.866-.1-2.12-2.942c-2.982-4.139-3.355-4.506-4.578-4.506h-.976l-.002 2.93c-.004 4.921.277 4.6-3.752 4.287l-1.669-.13.13-4.487c.072-2.467.189-6.743.261-9.501l.13-5.015.912.005c.501.003 2.706.086 4.898.184m-35.075.655c-.01.464-.748 2.968-.917 3.117-.093.081-1.548.252-3.232.379-1.685.126-3.1.267-3.144.311-.08.08.19 4.31.546 8.556.101 1.202.244 3.28.318 4.618l.136 2.433-.674.02c-.37.011-1.545.078-2.61.149l-1.937.129-.094-.596c-.052-.328-.191-2.026-.309-3.774-.118-1.747-.296-4.384-.395-5.859-.1-1.474-.24-3.284-.313-4.021l-.131-1.34-2.01.119c-1.106.065-2.663.182-3.461.26-1.7.167-1.637.229-1.773-1.753l-.106-1.546 2.062-.131c2.9-.186 6.991-.484 11.397-.831 2.075-.163 4.265-.323 4.866-.356.6-.032 1.248-.075 1.44-.096.191-.02.345.075.341.212m69.71 1.228c1.37.156 3.876.427 5.569.602s3.794.401 4.668.502c.873.102 2.661.288 3.972.416 2.936.285 2.769.159 2.097 1.579-.987 2.086-.899 2.023-2.494 1.801-.765-.106-2.2-.254-3.189-.328l-1.797-.135-.249 2.455c-.509 5.035-.665 6.485-.939 8.746-.155 1.275-.283 2.66-.284 3.078-.005 1.258-.024 1.265-2.682.951-1.309-.155-2.447-.283-2.529-.285-.28-.008.03-3.523 1.139-12.892.327-2.768.32-2.804-.555-2.799-.348.002-1.916-.15-3.483-.337l-2.85-.341.139-1.5c.196-2.1-.192-1.931 3.467-1.513m-97.818 1.521.861.216.14 1.685c.168 2.018.241 1.921-1.164 1.555-3.072-.801-7.222-.13-7.561 1.222-.308 1.225.474 1.708 4.781 2.952 4.609 1.331 6.076 2.362 6.626 4.658 1.163 4.848-7.349 8.794-14.659 6.798-1.848-.504-1.787-.377-.935-1.96.97-1.803.9-1.759 2.229-1.401 3.29.886 6.574.422 7.674-1.083.855-1.171-.159-2.12-3.154-2.949-6.563-1.817-8.035-2.915-8.035-5.998 0-4.082 7.223-7.2 13.197-5.695m62.603.575c-.071.357-.129 1.575-.129 2.709v2.06h1.564c5.495 0 5.736-4.873.262-5.296l-1.567-.12zm62.216 1.187c.809.112 1.503.234 1.541.272.037.038-.113 1.267-.334 2.732s-.626 4.183-.899 6.04c-.274 1.857-.639 4.315-.812 5.462-.174 1.147-.379 2.597-.456 3.223-.183 1.489-.013 1.428-2.878 1.03-2.883-.401-2.674-.12-2.215-2.977.157-.975.43-2.756.606-3.957.369-2.521.546-3.709 1.121-7.548.229-1.529.463-3.216.521-3.749l.105-.968 1.114.119c.613.065 1.777.21 2.586.321m-146.364.553c-.031.688-.805 3.315-1.015 3.444-.146.09-.758.222-1.36.293s-1.675.245-2.385.386c-.71.142-1.766.32-2.348.397-1.255.165-1.35.331-1.061 1.846.119.622.265 1.452.326 1.842l.109.711 1.537-.252c1.706-.28 4.571-.789 5.545-.986.61-.124.637-.101.758.639.069.422.203 1.168.297 1.658s.143.919.109.954c-.084.083-4.014.788-5.868 1.051-1.88.268-1.814.171-1.476 2.168.523 3.095-.249 2.858 5.824 1.789 1.899-.334 3.484-.577 3.521-.54.098.098.677 3.181.61 3.249-.031.03-.856.188-1.835.35-.978.162-2.538.433-3.466.603-.929.17-2.269.396-2.979.503-.71.106-2.273.371-3.473.588-2.528.459-2.414.514-2.676-1.283-.111-.762-.43-2.682-.707-4.266-.278-1.584-.863-4.98-1.299-7.547s-.831-4.776-.878-4.909c-.121-.341.146-.461 1.443-.653.624-.092 2.744-.449 4.71-.792 6.728-1.176 7.746-1.353 7.895-1.372.082-.011.146.047.142.129m167.534 3.017c3.128.306 8.694 1.988 8.971 2.71.091.236-.444 3.241-.606 3.402-.038.038-.774-.285-1.635-.719-7.957-4.009-15.292-1.771-14.707 4.486.338 3.62 3.563 6.061 8.604 6.511 1.732.155 1.572.383 2.277-3.226.31-1.585.592-2.911.627-2.946.067-.067 4.964.91 5.069 1.011.033.032-.114.939-.325 2.017-.212 1.078-.547 2.84-.746 3.917-.443 2.404-.305 2.326-4.366 2.462-9.627.323-16.48-3.741-16.911-10.028-.434-6.342 5.402-10.416 13.748-9.597m-189.6 2.842c.131.683.289 1.476.35 1.762l.111.521-2.253-.099c-7.445-.327-12.374 3.92-10.466 9.019 1.681 4.494 7.773 5.202 13.596 1.581l.815-.507.922 1.136c1.15 1.417 1.15 1.426-.137 2.281-9.814 6.516-21.823 2.97-21.117-6.236.454-5.922 7.334-10.622 15.639-10.682l2.3-.017zm-27.615 5.164c.107.355.439 1.584.738 2.731.472 1.811 1.84 6.905 2.772 10.328.164.601.511 1.876.771 2.833.261.957.408 1.781.328 1.831-.384.237-4.807 1.296-4.976 1.191-.107-.065-.194-.248-.194-.406s-.358-1.605-.796-3.215c-.438-1.611-1.149-4.225-1.58-5.809-.767-2.82-1.355-5.005-1.913-7.11-.448-1.69-.433-1.721.963-2.081.682-.176 1.688-.451 2.234-.612 1.396-.409 1.436-.401 1.653.319m-12.967 5.216-.127 1.194-1.827.557c-6.327 1.93-5.667 1.451-5.005 3.638.293.967.592 1.822.666 1.9.124.131 1.243-.173 5.577-1.511.92-.284 1.726-.517 1.791-.517.223 0 1.054 3.008.879 3.182-.095.095-1.693.636-3.55 1.203-4.062 1.238-3.736.941-3.133 2.864.274.874.543 1.835.597 2.135.054.301.136.546.182.546.075 0 3.821-1.157 7.022-2.168 1.762-.557 1.696-.587 2.178.999.43 1.418.424 1.964-.022 1.964-.132 0-1.364.352-2.737.782-7.738 2.423-10.23 3.19-10.37 3.19-.085 0-.345-.648-.579-1.44-.233-.792-.826-2.736-1.318-4.32-.493-1.584-1.251-4.041-1.685-5.461-.435-1.42-1.014-3.297-1.288-4.171s-.573-1.834-.665-2.133c-.221-.715-.666-.542 8.839-3.439 1.202-.366 2.721-.833 3.377-1.036l1.191-.371.067.61c.037.335.01 1.146-.06 1.803m-27.289 9.677c.443 1.23.878 2.461.968 2.734.165.5.478 1.374 1.992 5.561.454 1.256.912 2.579 1.017 2.939.225.77-.25.861 4.576-.878 4.27-1.539 3.796-1.566 4.407.25.554 1.648.547 1.763-.124 1.914-.247.055-1.075.329-1.84.607-7.143 2.6-10.452 3.749-10.54 3.661-.072-.072-1.505-3.988-1.873-5.117-.089-.273-.536-1.524-.993-2.78s-.905-2.508-.994-2.781c-.09-.273-.389-1.122-.664-1.887-.275-.764-.812-2.256-1.192-3.315l-.691-1.926 1.324-.49c3.475-1.288 3.499-1.294 3.665-1.004.087.151.519 1.281.962 2.512m154.194 91.031c-25.614 1.478-46.013 17.256-54.806 42.388-.402 1.147-.81 2.309-.907 2.582-1.322 3.71-2.903 10.817-3.557 15.988-1.35 10.676-.977 21.242 1.177 33.367 2.793 15.721 10.284 33.409 20.422 48.223 1.761 2.574 1.918 2.574.868.002-1.49-3.654-2.66-7.458-3.714-12.079-.757-3.316-1.563-7.785-1.882-10.427-.125-1.037-.309-2.423-.409-3.078-1.183-7.766-1.176-25.729.012-34.955.443-3.434.614-4.64.918-6.455 7.453-44.523 32.241-68.331 71.223-68.408 7.437-.014 7.923-.092 5.759-.916-4.965-1.893-12.64-4.116-16.5-4.778-3.879-.666-4.97-.826-7.344-1.079-2.688-.286-9.098-.499-11.26-.375m29.295 21.046c-5.36.565-9.912 1.516-15.315 3.201-2.695.84-2.976 1.175-1.12 1.334.683.059 2.358.203 3.724.319 22.873 1.954 38.969 11.303 55.392 32.172 1.285 1.633.886 3.135-1.081 4.069-1.316.624-1.195.83-2.156-3.666-.292-1.365-.672-3.085-.843-3.823l-.312-1.34h-.775c-3.108 0-6.545.997-11 3.192-3.595 1.771-5.182 2.369-6.287 2.369-1.017 0-1.203 1.287-.217 1.501 3.418.745 6.027 2.801 13.019 10.26 3.021 3.223 5.059 4.772 7.247 5.506 1.323.443 3.021.746 3.021.537 0-.068-.191-.817-.425-1.665-.929-3.374-.624-6.041.814-7.096 1.078-.792 2.453-2.73 3.173-4.475.616-1.492.675-1.529 1.544-.964 3.789 2.466 10.849 3.493 14.249 2.073l.776-.324-.695-.74c-1.351-1.439-2.337-2.783-5.932-8.089-7.741-11.427-12.291-16.888-18.469-22.17-10.887-9.307-24.515-13.638-38.332-12.181m.695 46.679c-25.868 7.033-39.579 31.173-36.033 63.442 2.015 18.342 9.572 36.944 17.323 42.644 1.234.907 1.302.782.476-.866-5.848-11.66-9.092-33.509-7.484-50.418.409-4.307.704-6.814.894-7.607.06-.251.245-1.234.41-2.184.791-4.559 2.829-11.688 4.554-15.929 1.006-2.474 1.196-2.897 2.503-5.561 3.777-7.703 7.709-13.141 14.09-19.488 3.229-3.212 4.071-4.251 3.267-4.033m48.18 19.996c1.059 1.103 2.788 3.608 7.092 10.278 7.912 12.26 15.029 21.133 20.871 26.018.588.491 1.169.988 1.291 1.105 4.213 4.004 11.743 7.309 17.253 7.572 2.792.134 2.977.083 1.589-.436-8.943-3.347-16.048-9.921-25.864-23.931-8.103-11.565-13.596-17.139-19.581-19.868-2.879-1.312-3.322-1.436-2.651-.738m-12.179 3.873c.32.409 2.62 3.604 5.111 7.1 18.764 26.331 32.737 37.809 46.055 37.831 3.293.006 6.18-.587 4.189-.859-8.908-1.221-17.72-7.321-28.881-19.991-.914-1.038-1.938-2.2-2.277-2.583-.338-.382-1.106-1.276-1.707-1.986-1.139-1.346-3.003-3.49-5.526-6.354-5.669-6.438-11.516-11.368-15.773-13.298-1.726-.783-1.897-.763-1.191.14m59.696 8.383c-4.262 1.015-4.079 3.672.852 12.364 3.658 6.45 5.512 11.96 5.949 17.684.138 1.805.131 1.802 1.872.645 4.691-3.119 7.206-8.629 7.489-16.405l.112-3.099-1.316-.106c-3.527-.283-7.642-3.344-10.828-8.053-1.395-2.063-2.852-3.416-3.445-3.2-.031.011-.339.087-.685.17" fill="#0c4434"/><path d="m195.775 5.307c.353.044.978.045 1.39.002s.124-.079-.641-.08c-.764-.001-1.101.034-.749.078m6.956.001c.355.044.936.044 1.291 0 .355-.045.064-.081-.646-.081s-1 .036-.645.081m-12.314.195c.246.047.648.047.894 0 .246-.048.045-.086-.447-.086s-.693.038-.447.086m18.272 0c.246.047.648.047.894 0 .246-.048.045-.086-.447-.086s-.693.038-.447.086m-21.748.195c.192.05.504.05.696 0 .191-.05.034-.091-.348-.091s-.539.041-.348.091m25.422 0c.192.05.504.05.696 0 .191-.05.034-.091-.348-.091s-.539.041-.348.091m-28.994.204c.302.046.749.045.993-.003.244-.047-.003-.084-.549-.083-.546.002-.746.041-.444.086m32.272-.002c.245.047.647.047.893 0s.045-.086-.447-.086c-.491 0-.692.039-.446.086m-44.787.99c.191.05.504.05.695 0s.035-.091-.347-.091c-.383 0-.539.041-.348.091m16.981 41.91c.246.047.648.047.894 0 .246-.048.045-.087-.447-.087s-.693.039-.447.087m21.847 0c.246.047.648.047.894 0 .246-.048.045-.087-.447-.087-.491 0-.693.039-.447.087m-6.43 2.143c0 1.202.033 1.668.073 1.036.039-.632.039-1.615-.001-2.185-.04-.569-.072-.052-.072 1.149m-32.001-1.551c.191.05.504.05.695 0 .192-.05.035-.091-.347-.091-.383 0-.539.041-.348.091m-8.438.6c.247.047.604.045.794-.004.19-.05-.012-.089-.449-.087s-.592.043-.345.091m-8.245.592c.191.05.504.05.695 0s.035-.091-.347-.091c-.383 0-.539.041-.348.091m-14.101 1.39c.191.05.504.05.695 0s.035-.091-.348-.091c-.382 0-.538.041-.347.091m49.161.009c.467.042 1.182.041 1.589-.001.407-.043.024-.077-.85-.077-.873.001-1.206.036-.739.078m-18.079.59c.246.047.648.047.894 0s.045-.086-.447-.086-.693.039-.447.086m9.46 2.144c.001 1.311.033 1.821.072 1.134s.038-1.759-.001-2.383-.071-.062-.071 1.249m59.174-1.591c.023.231.203.412.435.435.286.03.303.013.06-.059-.185-.055-.381-.251-.436-.436-.073-.243-.089-.227-.059.06m-79.183.235c.124.09.274.343.334.562.087.313.102.295.073-.084-.02-.265-.171-.517-.335-.562-.196-.053-.221-.024-.072.084m-2.755.205c.247.048.604.046.794-.004.19-.049-.012-.088-.449-.086s-.592.043-.345.09m49.952 2.839c0 .492.039.693.086.447.048-.246.048-.648 0-.894-.047-.245-.086-.044-.086.447m-17.576-.053c.467.042 1.182.042 1.589-.001s.024-.077-.85-.076c-.873 0-1.206.035-.739.077m12.423 1.94c.001.765.037 1.053.08.641s.042-1.038-.002-1.39c-.043-.353-.079-.016-.078.749m6.048-.748c.467.042 1.182.041 1.589-.001.406-.043.024-.077-.85-.077-.874.001-1.206.036-.739.078m-47.374 1.344c.003.437.043.592.091.345.047-.247.045-.605-.004-.794-.05-.19-.089.012-.087.449m5.16.298c0 .382.041.538.091.347s.05-.504 0-.695-.091-.035-.091.348m123.241 1.534c.355.044.936.044 1.291 0s.065-.08-.645-.08-1.001.036-.646.08m-108.92 2.438c0 .819.035 1.154.078.745.043-.41.043-1.08 0-1.49s-.078-.074-.078.745m-82.345-.85c.352.044.978.045 1.39.002s.123-.079-.641-.08c-.765-.001-1.102.034-.749.078m109.144.85c0 .491.039.693.087.447.047-.246.047-.648 0-.894-.048-.246-.087-.045-.087.447m-21.672.745-.03.645 1.638-.04 1.639-.04-1.527-.067c-1.487-.066-1.529-.082-1.609-.606-.074-.491-.084-.481-.111.108m-19.047.546c.003.437.043.592.091.345.047-.247.046-.604-.004-.794s-.089.012-.087.449m35.567.596c.001.764.036 1.053.079.641s.043-1.038-.001-1.391c-.044-.352-.079-.015-.078.75m-8.655-.754c.245.047.648.047.893 0 .246-.047.045-.086-.446-.086-.492 0-.693.039-.447.086m1.303 2.144c.001.655.038.9.082.543s.043-.894-.002-1.192c-.045-.299-.082-.006-.08.649m82.614-.099c0 .491.038.692.086.447.047-.246.047-.648 0-.894-.048-.246-.086-.045-.086.447m5.553.397c0 .382.041.539.091.347.05-.191.05-.504 0-.695s-.091-.034-.091.348m-94.828.94c.468.042 1.183.041 1.589-.001.407-.043.025-.077-.849-.077-.874.001-1.207.036-.74.078m27.035.113c.088.087.732.131 1.431.097l1.271-.062-1.431-.097c-.787-.054-1.359-.026-1.271.062m-126.44 1.529c0 .491.039.692.087.447.047-.246.047-.648 0-.894-.048-.246-.087-.045-.087.447m202.878 7.687c.247.048.605.046.795-.004.19-.049-.013-.088-.45-.086s-.592.043-.345.09m2.878-.003c.191.05.504.05.695 0s.035-.091-.348-.091c-.382 0-.538.041-.347.091m-289.378 42.763c0 .382.041.538.091.347s.05-.504 0-.695-.091-.035-.091.348m115.894 7.29c.247.048.605.046.795-.004s-.012-.088-.449-.086-.593.043-.346.09m10.924 0c.247.048.605.046.794-.004.19-.05-.012-.088-.449-.086s-.592.043-.345.09m-127.414 1.051c0 .383.041.539.091.348s.05-.504 0-.695-.091-.035-.091.347m389.474.795c0 .382.04.538.09.347s.05-.504 0-.695-.09-.035-.09.348m-389.673 2.184c0 .383.041.539.091.348s.05-.504 0-.695-.091-.035-.091.347m-.183 3.675c.001.655.038.899.083.542.044-.357.043-.893-.002-1.191-.046-.299-.082-.007-.081.649m390.261 1.291c0 .491.039.692.086.447.047-.246.047-.648 0-.894s-.086-.045-.086.447m.201 5.263c.002.546.04.746.086.444s.044-.749-.003-.993-.084.003-.083.549m-224.784 1.291c.538.546 1.023.993 1.078.993.054 0-.341-.447-.879-.993s-1.023-.993-1.077-.993c-.055 0 .34.447.878.993m-166.07 2.979c0 .819.035 1.154.078.745.043-.41.043-1.08 0-1.49-.043-.409-.078-.074-.078.745m391.068 2.383c0 1.038.033 1.463.074.944s.041-1.368 0-1.887-.074-.094-.074.943m-219.089.336c.191.05.504.05.695 0s.035-.091-.347-.091c-.383 0-.539.041-.348.091m-35.998 3.934c.593.601 1.124 1.093 1.178 1.093.055 0-.386-.492-.979-1.093-.594-.6-1.124-1.092-1.178-1.092-.055 0 .386.492.979 1.092m18.868 10.631c-1.029.121-.995.131.579.161.92.018 1.635 0 1.589-.039-.214-.184-1.177-.239-2.168-.122m236.217 2.08c0 .984.033 1.411.075.95s.042-1.266.001-1.788-.075-.145-.076.838m-391.065 2.384c.001.874.036 1.206.078.739s.041-1.182-.001-1.589c-.043-.406-.077-.024-.077.85m390.853 4.171c.002.546.04.746.086.444s.044-.749-.003-.993c-.047-.245-.084.002-.083.549m-293.503 6.057c-1.307 1.311-2.332 2.383-2.277 2.383.054 0 1.169-1.072 2.476-2.383 1.308-1.311 2.333-2.383 2.278-2.383s-1.169 1.072-2.477 2.383m293.302-.993c0 .492.039.693.086.447s.047-.648 0-.894-.086-.045-.086.447m-390.263 1.39c0 .601.037.847.083.546.045-.3.045-.791 0-1.092-.046-.3-.083-.054-.083.546m210.221.538c.247.048.605.046.794-.004.19-.05-.012-.089-.449-.086-.437.002-.592.043-.345.09m4.767 0c.247.048.604.046.794-.004s-.012-.089-.449-.086c-.437.002-.592.043-.345.09m-214.803 3.037c0 .383.041.539.091.348s.05-.504 0-.695-.091-.035-.091.347m.199 2.979c0 .383.041.539.091.348s.05-.504 0-.695-.091-.035-.091.347m254.174.298c.371.383.719.695.773.695.055 0-.204-.312-.574-.695-.371-.382-.719-.695-.773-.695-.055 0 .204.313.574.695m2.284 2.284c.759.765 1.425 1.391 1.479 1.391.055 0-.521-.626-1.28-1.391-.759-.764-1.424-1.39-1.479-1.39s.522.626 1.28 1.39m-256.259.398c0 .382.04.538.09.347s.05-.504 0-.695-.09-.035-.09.348m.397 4.965c0 .382.041.539.091.347.05-.191.05-.504 0-.695s-.091-.034-.091.348m163.999 4.32-1.086 1.142 1.142-1.086c1.061-1.008 1.233-1.198 1.086-1.198-.031 0-.545.513-1.142 1.142m32.926.388c.246.047.648.047.894 0 .245-.047.044-.086-.447-.086-.492 0-.693.039-.447.086m55.263 8.859c0 .035.291.325.646.646l.645.583-.583-.645c-.544-.602-.708-.737-.708-.584m3.765 3.762c.823.876 1.002 1.034 1.002.885 0-.032-.425-.456-.944-.943l-.943-.886zm-52.772 5.658c.737.038 1.944.038 2.681 0 .738-.038.134-.069-1.34-.069-1.475 0-2.078.031-1.341.069m44.24 5.675c0 .034.291.324.646.645l.645.584-.583-.646c-.544-.602-.708-.737-.708-.583m2.651 2.852c.359.427.356.433-.2.502l-.564.069.654.111c.858.146.947-.053.285-.638-.457-.404-.484-.41-.175-.044m-18.291 6.16c.191.05.504.05.695 0s.035-.091-.348-.091c-.382 0-.538.041-.347.091m-125.918.757c.002.437.043.592.09.345.048-.247.046-.604-.004-.794s-.088.012-.086.449m63.194.149-.583.645.646-.583c.355-.321.645-.611.645-.646 0-.153-.164-.018-.708.584m-63.386 3.823c.001.546.04.746.086.444.045-.302.044-.749-.003-.993s-.085.003-.083.549m134.501 2.085c.427.437.821.795.875.795.055 0-.25-.358-.676-.795-.427-.437-.821-.794-.875-.794-.055 0 .249.357.676.794m29.943-.254c.302.045.749.044.993-.003.245-.047-.002-.084-.549-.083-.546.001-.746.04-.444.086m-202.389.652c0 .382.041.538.091.347.049-.191.049-.504 0-.695-.05-.191-.091-.035-.091.348m174.73 2.048c0 .034.291.325.646.645l.645.584-.583-.646c-.544-.601-.708-.737-.708-.583m-174.925 1.626c.002.437.043.592.09.345.048-.247.046-.604-.004-.794-.049-.19-.088.012-.086.449m141.356 2.631-1.883 1.937 1.937-1.883c1.798-1.749 2.027-1.99 1.883-1.99-.03 0-.901.871-1.937 1.936m-125.832 2.334c.001 2.076.03 2.898.066 1.827s.035-2.769-.001-3.774c-.036-1.004-.065-.128-.065 1.947m39.518-.993c0 1.42.032 1.975.07 1.233.039-.742.038-1.904 0-2.582-.039-.678-.07-.071-.07 1.349m-16.899.497c0 .6.037.846.082.546.046-.301.046-.792 0-1.093-.045-.3-.082-.054-.082.547m-38.139.198c0 .492.039.693.086.447s.047-.648 0-.894c-.047-.245-.086-.044-.086.447m.191 3.774c0 .382.041.539.091.347.049-.191.049-.504 0-.695-.05-.191-.091-.035-.091.348m38.137.298c.002.437.043.592.09.345.048-.247.046-.605-.004-.794-.05-.19-.088.012-.086.449m86.334.447-.684.744.745-.684c.693-.637.836-.805.684-.805-.033 0-.368.335-.745.745m-2.582 2.582-.684.744.745-.684c.693-.637.836-.805.684-.805-.033 0-.368.335-.745.745m-66.676 1.241c0 .382.041.539.091.347.05-.191.05-.504 0-.695s-.091-.034-.091.348m16.302 8.838c.001.655.038.9.082.543s.043-.894-.002-1.192-.081-.006-.08.649m131.418 1.552c0 .034.29.324.645.645l.646.584-.584-.646c-.543-.602-.707-.737-.707-.583m-63.462 1.775-1.186 1.241 1.242-1.185c.682-.652 1.241-1.211 1.241-1.242 0-.147-.196.033-1.297 1.186m66.64 1.402c0 .035.29.325.645.646l.645.583-.583-.645c-.544-.602-.707-.737-.707-.584m-134.784 3.215c.001 1.093.034 1.514.074.937s.04-1.471-.001-1.986-.073-.043-.073 1.049m119.888-1.824c0 .034.29.324.645.645l.646.584-.584-.646c-.543-.602-.707-.737-.707-.583m-181.862 4.208c.001.764.037 1.053.08.641s.042-1.038-.001-1.391c-.044-.352-.079-.015-.079.75m185.933-.1c.427.437.821.795.875.795.055 0-.249-.358-.676-.795s-.821-.794-.875-.794c-.055 0 .25.357.676.794m-185.933 4.469c.001.765.037 1.053.08.641s.042-1.038-.001-1.39c-.044-.353-.079-.016-.079.749m62.162 1.192c.001.655.038.899.082.542s.043-.893-.002-1.191c-.045-.299-.081-.007-.08.649m184.198 3.616c.246.047.648.047.894 0 .246-.048.045-.086-.447-.086-.491 0-.692.038-.447.086m-245.981 1.448c0 .383.04.539.09.348s.05-.504 0-.695-.09-.035-.09.347m89.581 3.377c0 .491.038.692.086.447.047-.246.047-.648 0-.894-.048-.246-.086-.045-.086.447m-14.702.099c.003.437.043.592.091.345.047-.247.046-.604-.004-.794s-.089.012-.087.449m23.843.894c0 .601.037.846.083.546.045-.3.045-.792 0-1.092-.046-.301-.083-.055-.083.546m94.677 3.277c.594.601 1.124 1.092 1.178 1.092.055 0-.386-.491-.979-1.092s-1.124-1.093-1.178-1.093c-.055 0 .386.492.979 1.093m14.598.894c.538.546 1.023.993 1.078.993.054 0-.341-.447-.879-.993-.538-.547-1.023-.994-1.078-.994-.054 0 .341.447.879.994m-167.847 2.085c0 1.42.032 1.975.07 1.233s.038-1.904-.001-2.582c-.038-.678-.07-.071-.069 1.349m156.419.149c.487.519.911.943.943.943.149 0-.008-.178-.885-1.001l-.944-.886zm-87.131 1.241c.002.437.042.593.09.345.047-.247.046-.604-.004-.794s-.089.012-.086.449m-10.716 1.688c0 .601.037.847.083.547.045-.301.045-.792 0-1.093-.046-.3-.083-.054-.083.546m-115.704-.651c.352.044.978.045 1.39.002s.123-.079-.641-.08c-.765-.001-1.102.034-.749.078m204.324 1.446c.869.874 1.624 1.589 1.679 1.589.054 0-.612-.715-1.481-1.589-.868-.874-1.624-1.589-1.678-1.589-.055 0 .611.715 1.48 1.589m-78.081 2.88c.001 1.092.034 1.514.074.936.041-.577.04-1.47 0-1.986-.041-.515-.074-.043-.074 1.05m8.737-.199c0 .983.033 1.41.075.949.041-.461.042-1.265.001-1.787s-.075-.145-.076.838m64.245 1.092c.042.437.111.795.154.795.044 0 .079-.358.079-.795s-.07-.794-.154-.794c-.085 0-.12.357-.079.794m-92.666.497c.002.437.042.592.09.345.047-.247.046-.604-.004-.794s-.089.012-.086.449m19.684 2.78c.001 1.093.034 1.514.074.937.041-.577.04-1.471 0-1.986-.041-.515-.074-.043-.074 1.049m121.775-1.291-1.589.126 1.627.037c.912.02 1.681-.051 1.749-.163.068-.109.051-.182-.038-.162-.088.02-.875.093-1.749.162m-121.602 6.753c0 .383.04.539.09.348s.05-.504 0-.695-.09-.035-.09.347m124.482 1.093c-.483.491-.833.893-.778.893s.494-.402.976-.893c.483-.492.833-.894.778-.894-.054 0-.494.402-.976.894m-12.761 4.811c.355.044.936.044 1.291 0s.065-.081-.645-.081-1.001.037-.646.081m-155.462 8.657c0 .034.291.325.646.645l.645.584-.583-.646c-.544-.601-.708-.737-.708-.583m2.88 3.115c.427.437.821.795.875.795.055 0-.25-.358-.676-.795-.427-.436-.821-.794-.875-.794-.055 0 .249.358.676.794m7.349 7.349c.426.437.82.794.875.794.054 0-.25-.357-.677-.794-.426-.437-.82-.794-.875-.794-.054 0 .25.357.677.794m38.82 7.795c.823.877 1.001 1.035 1.001.886 0-.032-.425-.456-.943-.943l-.944-.886zm44.962 3.029c.001.874.035 1.207.077.74s.042-1.182-.001-1.589-.077-.025-.076.849m.192 7.15c.001.656.038.9.082.543s.044-.893-.002-1.192c-.045-.298-.081-.006-.08.649m8.764 1.937-.583.645.645-.583c.602-.544.737-.708.583-.708-.034 0-.324.291-.645.646m-26.303 3.028c.923.929 1.724 1.689 1.778 1.689.055 0-.656-.76-1.58-1.689-.923-.928-1.724-1.688-1.778-1.688-.055 0 .656.76 1.58 1.688m23.425.05-.685.745.745-.685c.41-.376.745-.711.745-.744 0-.152-.168-.009-.805.684m-4.269 4.43-.785.806-.125-.557c-.126-.558-.126-.558-.149.088-.031.849.123.816 1.168-.248.482-.492.832-.894.777-.894-.056 0-.454.362-.886.805m-12.106.386c.427.437.821.795.875.795.055 0-.249-.358-.676-.795s-.821-.794-.875-.794c-.055 0 .25.357.676.794m24.781 1.589c0 .492.039.693.086.447.048-.246.048-.648 0-.894-.047-.245-.086-.044-.086.447m0 4.966c0 .491.039.692.086.446.048-.245.048-.648 0-.893-.047-.246-.086-.045-.086.447m-26.121 13.447c.245.047.648.047.893 0 .246-.048.045-.087-.446-.087-.492 0-.693.039-.447.087m10.725 0c.245.047.648.047.893 0 .246-.048.045-.087-.447-.087-.491 0-.692.039-.446.087m-153.277 6.078c0 .035.29.325.645.646l.646.583-.584-.645c-.544-.602-.707-.737-.707-.584m2.879 3.116c.427.437.821.794.875.794.055 0-.249-.357-.676-.794s-.82-.794-.875-.794.25.357.676.794m141.661.538c.247.047.605.045.795-.004.189-.05-.013-.089-.45-.087-.437.003-.592.043-.345.091m8.836-.004c.191.05.504.05.695 0s.035-.091-.348-.091c-.382 0-.538.041-.347.091m64.784.707-.583.646.645-.583c.602-.544.737-.708.583-.708-.034 0-.324.29-.645.645m-211.606 2.632c.593.601 1.123 1.092 1.178 1.092.054 0-.386-.491-.98-1.092-.593-.601-1.123-1.092-1.178-1.092-.054 0 .386.491.98 1.092m204.565 4.618-2.679 2.73 2.731-2.678c2.537-2.488 2.821-2.783 2.679-2.783-.029 0-1.258 1.229-2.731 2.731m-196.422 3.525c.593.601 1.123 1.092 1.178 1.092.054 0-.386-.491-.98-1.092-.593-.601-1.123-1.092-1.178-1.092-.054 0 .386.491.98 1.092m189.672 2.979c-.482.492-.832.894-.778.894.055 0 .494-.402.977-.894.482-.491.832-.894.777-.894-.054 0-.494.403-.976.894m-185.601.894c.427.437.821.794.875.794.055 0-.25-.357-.676-.794-.427-.437-.821-.795-.875-.795-.055 0 .25.358.676.795m182.709 1.837-.584.645.646-.583c.355-.321.645-.611.645-.645 0-.154-.164-.019-.707.583m-93.388 21.797c0 .383.041.539.091.348s.05-.504 0-.695-.091-.035-.091.347m-15.386.339c.247.048.605.046.794-.004.19-.049-.012-.088-.449-.086s-.592.043-.345.09m-.853 6.066.007 4.022.993.021.993.02-.94-.081-.939-.08-.06-3.962-.06-3.962zm32.923-1.042c0 .382.04.539.09.347.05-.191.05-.504 0-.695s-.09-.034-.09.348m-3.377 1.39c0 .382.041.539.091.348s.05-.504 0-.695c-.05-.192-.091-.035-.091.347" fill="#748c84"/><path d="m198.165 5.304c.247.048.605.046.795-.004.19-.049-.013-.088-.45-.086s-.592.043-.345.09m2.778 0c.246.047.648.047.894 0s.045-.086-.447-.086c-.491 0-.692.039-.447.086m-8.835.201c.302.046.749.044.993-.003s-.003-.084-.549-.083c-.546.002-.746.04-.444.086m14.896 0c.302.046.748.044.993-.003.244-.047-.003-.084-.549-.083-.546.002-.746.04-.444.086m-30.788.987c.192.05.504.05.696 0 .191-.05.034-.09-.348-.09s-.539.04-.348.09m16.237 42.091c1.168.149 2.781.164 2.781.027-.001-.082-.738-.136-1.639-.119-.901.016-1.415.058-1.142.092m11.966.022c.41.043 1.08.043 1.49 0 .409-.042.074-.077-.745-.077s-1.155.035-.745.077m-19.161.2c.468.042 1.183.041 1.589-.001.407-.043.025-.077-.849-.077-.874.001-1.207.036-.74.078m-15.295.591c.247.047.604.045.794-.004.19-.05-.012-.089-.449-.087-.437.003-.592.043-.345.091m22.242 2.581c.245.048.648.048.893 0 .246-.047.045-.086-.447-.086-.491 0-.692.039-.446.086m-6.037 1.747c-.001.983.033 1.41.074.949.042-.461.043-1.265.002-1.787s-.076-.145-.076.838m-44.51 1.436c.41.042 1.08.042 1.49 0 .41-.043.074-.078-.745-.078s-1.154.035-.745.078m61.371 1.146c.002.437.043.592.091.345.047-.247.045-.604-.004-.794-.05-.19-.089.012-.087.449m-14.399.041c.245.047.648.047.893 0 .246-.048.045-.086-.447-.086-.491 0-.692.038-.446.086m-7.64 1.548c.002.546.04.746.086.444s.044-.749-.003-.993-.084.003-.083.549m108.14-.551c.357.044.893.043 1.191-.002.299-.046.007-.082-.649-.081-.655.001-.899.038-.542.083m-122.252.65c0 .382.041.539.091.348.05-.192.05-.504 0-.696-.05-.191-.091-.034-.091.348m27.218.794c0 .492.039.693.086.447.047-.245.047-.648 0-.893-.047-.246-.086-.045-.086.446m-6.353.942c.632.039 1.615.039 2.185-.001.569-.04.052-.072-1.149-.072-1.202.001-1.668.033-1.036.073m15.103 2.733c.001.764.036 1.053.079.641s.043-1.038-.001-1.39c-.044-.353-.079-.016-.078.749m-16.496.099c0 .492.039.693.086.447s.047-.648 0-.894-.086-.044-.086.447m-99.568 1.341-.685.744.745-.684c.41-.376.745-.712.745-.745 0-.151-.168-.009-.805.685m121.229 1.44c0 .819.035 1.154.078.744.043-.409.043-1.08 0-1.489-.043-.41-.078-.075-.078.745m-16.303-1.047c.41.042 1.08.042 1.49 0 .409-.043.074-.078-.745-.078s-1.155.035-.745.078m-10.522 1.047c0 .491.039.692.086.446.048-.245.048-.647 0-.893-.047-.246-.086-.045-.086.447m10.627 2.33c.467.042 1.182.041 1.588-.001.407-.043.025-.077-.849-.077-.874.001-1.207.036-.739.078m13.694-.002c.353.044.978.044 1.39.001s.124-.079-.641-.08c-.764 0-1.102.035-.749.079m-23.034.2c.464.042 1.224.042 1.688 0 .464-.041.084-.076-.844-.076-.929 0-1.309.035-.844.076m-17.577.985c.191.05.504.05.695 0s.035-.091-.348-.091c-.382 0-.538.041-.347.091m-26.413 2.786c.302.046.749.044.993-.003.245-.047-.002-.084-.548-.083-.547.002-.747.04-.445.086m-22.445 55.804c.191.05.504.05.695 0s.035-.091-.348-.091c-.382 0-.538.041-.347.091m-111.221 9.098c.002.437.043.592.09.345.048-.247.046-.604-.004-.794s-.088.012-.086.449m-.192 4.37c.001.546.04.746.086.444.045-.302.044-.749-.003-.993-.047-.245-.085.002-.083.549m-.196 7.05c0 .601.037.847.083.546.045-.3.045-.792 0-1.092-.046-.3-.083-.055-.083.546m137.18 5.425c0 .034.29.325.645.645l.646.584-.584-.646c-.543-.601-.707-.737-.707-.583m-137.18 11.457c0 .601.037.847.083.546.045-.3.045-.792 0-1.092-.046-.3-.083-.055-.083.546m132.702 4.816-.785.844.844-.785c.464-.431.844-.811.844-.844 0-.15-.173 0-.903.785m-132.506 2.235c.001.546.04.746.086.444.045-.302.044-.749-.003-.993s-.085.003-.083.549m183.709-.553c.302.046.749.045.993-.003.245-.047-.002-.084-.548-.083-.547.002-.746.04-.445.086m6.452-.002c.246.047.648.047.894 0 .246-.048.045-.086-.447-.086-.491 0-.692.038-.447.086m-189.965 4.825c0 .491.038.692.086.447.047-.246.047-.648 0-.894-.048-.246-.086-.045-.086.447m205.556 2.52c.192.05.504.05.695 0 .192-.05.035-.091-.347-.091s-.539.041-.348.091m-95.891 5.077-.583.645.645-.583c.355-.321.646-.611.646-.646 0-.153-.164-.018-.708.584m34.964 4.568-1.784 1.837 1.837-1.784c1.707-1.656 1.928-1.89 1.784-1.89-.03 0-.856.826-1.837 1.837m-38.738-.795-.583.646.646-.584c.355-.32.645-.611.645-.645 0-.154-.164-.018-.708.583m89.735 9.422c.191.05.504.05.695 0s.035-.091-.348-.091c-.382 0-.538.041-.347.091m59.335 10.849c0 .034.29.325.645.645l.645.584-.583-.646c-.544-.601-.707-.737-.707-.583m-9.339 10.315c1.145 1.174 2.106 2.135 2.135 2.135.144 0-.098-.254-2.081-2.188l-2.136-2.082zm-74.078 11.371c-.482.491-.832.893-.777.893.054 0 .494-.402.976-.893.482-.492.833-.894.778-.894s-.494.402-.977.894m-64.888 3.575c.001.546.04.746.086.444.045-.302.044-.749-.003-.993-.047-.245-.085.002-.083.549m83.049.148-.584.646.646-.583c.355-.321.645-.612.645-.646 0-.153-.164-.018-.707.583m-120.994 2.93c0 .382.041.539.091.348.049-.192.049-.504 0-.696-.05-.191-.091-.034-.091.348m37.948 11.321c0 .601.037.846.082.546.046-.3.046-.792 0-1.092-.045-.301-.082-.055-.082.546m-37.948 3.177c0 .383.041.539.091.348.049-.191.049-.504 0-.695-.05-.191-.091-.035-.091.347m15.491 1.391c0 .382.041.538.091.347s.05-.504 0-.695-.091-.035-.091.348m189.527 14.498c.538.546 1.023.993 1.078.993.054 0-.341-.447-.879-.993s-1.023-.993-1.078-.993c-.054 0 .341.447.879.993m-133.695.894c0 .874.035 1.207.077.74.042-.468.042-1.183-.001-1.589-.043-.407-.077-.025-.076.849m.001 6.852c0 .929.034 1.308.076.844s.042-1.224 0-1.688-.076-.084-.076.844m-61.979 1.092c.002.547.04.746.086.445.045-.302.044-.749-.003-.994-.047-.244-.084.003-.083.549m75.064 1.689c0 .382.041.538.091.347s.05-.504 0-.695-.091-.035-.091.348m162.814.459c0 .034.29.325.645.645l.646.584-.584-.646c-.543-.601-.707-.736-.707-.583m-162.814 5.3c0 .383.041.539.091.348s.05-.504 0-.695-.091-.035-.091.347m127.263 8.794c0 .03.692.722 1.539 1.539l1.539 1.485-1.485-1.54c-1.378-1.429-1.593-1.63-1.593-1.484m14.887 1.981c.823.877 1.001 1.034 1.001.885 0-.032-.424-.456-.943-.943l-.943-.886zm-118.118 2.334c0 .382.04.538.09.347s.05-.504 0-.695-.09-.035-.09.348m-117.772.936c.3.046.792.046 1.092 0 .3-.045.055-.083-.546-.083s-.847.038-.546.083m4.568 0c.3.046.792.046 1.092 0 .3-.045.055-.083-.546-.083s-.847.038-.546.083m123.745 1.348c.001.655.039.899.083.542s.043-.893-.002-1.192c-.046-.298-.082-.006-.081.65m128.439 4.071c0 .437.07.794.155.794.084 0 .12-.357.078-.794s-.111-.794-.154-.794-.079.357-.079.794m-128.437 6.157c0 .71.036 1 .081.645.044-.355.044-.936 0-1.291-.045-.355-.081-.064-.081.646m112.797-.454c.3.046.792.046 1.092 0 .301-.045.055-.082-.546-.082s-.847.037-.546.082m-150 24.188c1.033 1.038 1.923 1.887 1.978 1.887s-.746-.849-1.78-1.887c-1.033-1.038-1.923-1.887-1.978-1.887-.054 0 .746.849 1.78 1.887m-62.165 62.165c.371.382.718.695.773.695s-.204-.313-.574-.695c-.371-.383-.719-.696-.773-.696-.055 0 .203.313.574.696m7.051 7.249c1.197 1.201 2.222 2.185 2.277 2.185.054 0-.881-.984-2.079-2.185-1.198-1.202-2.222-2.185-2.277-2.185s.881.983 2.079 2.185m5.461 5.226c0 .034.291.325.646.645l.645.584-.583-.646c-.544-.601-.708-.737-.708-.583" fill="#4c6c64"/></g></svg>